<?xml version="1.0" encoding="utf-8" standalone="no"?>
<!DOCTYPE svg PUBLIC "-//W3C//DTD SVG 1.1//EN"
  "http://www.w3.org/Graphics/SVG/1.1/DTD/svg11.dtd">
<svg xmlns:xlink="http://www.w3.org/1999/xlink" width="1278.72pt" height="1237.68pt" viewBox="0 0 1278.72 1237.68" xmlns="http://www.w3.org/2000/svg" version="1.1">
 <metadata>
  <rdf:RDF xmlns:dc="http://purl.org/dc/elements/1.1/" xmlns:cc="http://creativecommons.org/ns#" xmlns:rdf="http://www.w3.org/1999/02/22-rdf-syntax-ns#">
   <cc:Work>
    <dc:type rdf:resource="http://purl.org/dc/dcmitype/StillImage"/>
    <dc:date>2026-03-26T13:51:23.230428</dc:date>
    <dc:format>image/svg+xml</dc:format>
    <dc:creator>
     <cc:Agent>
      <dc:title>Matplotlib v3.10.7, https://matplotlib.org/</dc:title>
     </cc:Agent>
    </dc:creator>
   </cc:Work>
  </rdf:RDF>
 </metadata>
 <defs>
  <style type="text/css">*{stroke-linejoin: round; stroke-linecap: butt}</style>
 </defs>
 <g id="figure_1">
  <g id="patch_1">
   <path d="M 0 1237.68 
L 1278.72 1237.68 
L 1278.72 0 
L 0 0 
z
" style="fill: #ffffff"/>
  </g>
  <g id="axes_1">
   <g id="patch_2">
    <path d="M 76.85344 600.026627 
L 632.076492 600.026627 
L 632.076492 123.768 
L 76.85344 123.768 
z
" style="fill: #ffffff"/>
   </g>
   <g id="matplotlib.axis_1">
    <g id="xtick_1">
     <g id="line2d_1">
      <defs>
       <path id="m4a59cff95b" d="M 0 0 
L 0 3.5 
" style="stroke: #000000; stroke-width: 0.8"/>
      </defs>
      <g>
       <use xlink:href="#m4a59cff95b" x="84.68574" y="600.026627" style="stroke: #000000; stroke-width: 0.8"/>
      </g>
     </g>
     <g id="text_1">
      <!-- 0.00 -->
      <g transform="translate(66.650584 619.336096) scale(0.162 -0.162)">
       <defs>
        <path id="DejaVuSans-30" d="M 2034 4250 
Q 1547 4250 1301 3770 
Q 1056 3291 1056 2328 
Q 1056 1369 1301 889 
Q 1547 409 2034 409 
Q 2525 409 2770 889 
Q 3016 1369 3016 2328 
Q 3016 3291 2770 3770 
Q 2525 4250 2034 4250 
z
M 2034 4750 
Q 2819 4750 3233 4129 
Q 3647 3509 3647 2328 
Q 3647 1150 3233 529 
Q 2819 -91 2034 -91 
Q 1250 -91 836 529 
Q 422 1150 422 2328 
Q 422 3509 836 4129 
Q 1250 4750 2034 4750 
z
" transform="scale(0.015625)"/>
        <path id="DejaVuSans-2e" d="M 684 794 
L 1344 794 
L 1344 0 
L 684 0 
L 684 794 
z
" transform="scale(0.015625)"/>
       </defs>
       <use xlink:href="#DejaVuSans-30"/>
       <use xlink:href="#DejaVuSans-2e" transform="translate(63.623047 0)"/>
       <use xlink:href="#DejaVuSans-30" transform="translate(95.410156 0)"/>
       <use xlink:href="#DejaVuSans-30" transform="translate(159.033203 0)"/>
      </g>
     </g>
    </g>
    <g id="xtick_2">
     <g id="line2d_2">
      <g>
       <use xlink:href="#m4a59cff95b" x="171.711297" y="600.026627" style="stroke: #000000; stroke-width: 0.8"/>
      </g>
     </g>
     <g id="text_2">
      <!-- 0.05 -->
      <g transform="translate(153.676141 619.336096) scale(0.162 -0.162)">
       <defs>
        <path id="DejaVuSans-35" d="M 691 4666 
L 3169 4666 
L 3169 4134 
L 1269 4134 
L 1269 2991 
Q 1406 3038 1543 3061 
Q 1681 3084 1819 3084 
Q 2600 3084 3056 2656 
Q 3513 2228 3513 1497 
Q 3513 744 3044 326 
Q 2575 -91 1722 -91 
Q 1428 -91 1123 -41 
Q 819 9 494 109 
L 494 744 
Q 775 591 1075 516 
Q 1375 441 1709 441 
Q 2250 441 2565 725 
Q 2881 1009 2881 1497 
Q 2881 1984 2565 2268 
Q 2250 2553 1709 2553 
Q 1456 2553 1204 2497 
Q 953 2441 691 2322 
L 691 4666 
z
" transform="scale(0.015625)"/>
       </defs>
       <use xlink:href="#DejaVuSans-30"/>
       <use xlink:href="#DejaVuSans-2e" transform="translate(63.623047 0)"/>
       <use xlink:href="#DejaVuSans-30" transform="translate(95.410156 0)"/>
       <use xlink:href="#DejaVuSans-35" transform="translate(159.033203 0)"/>
      </g>
     </g>
    </g>
    <g id="xtick_3">
     <g id="line2d_3">
      <g>
       <use xlink:href="#m4a59cff95b" x="258.736854" y="600.026627" style="stroke: #000000; stroke-width: 0.8"/>
      </g>
     </g>
     <g id="text_3">
      <!-- 0.10 -->
      <g transform="translate(240.701697 619.336096) scale(0.162 -0.162)">
       <defs>
        <path id="DejaVuSans-31" d="M 794 531 
L 1825 531 
L 1825 4091 
L 703 3866 
L 703 4441 
L 1819 4666 
L 2450 4666 
L 2450 531 
L 3481 531 
L 3481 0 
L 794 0 
L 794 531 
z
" transform="scale(0.015625)"/>
       </defs>
       <use xlink:href="#DejaVuSans-30"/>
       <use xlink:href="#DejaVuSans-2e" transform="translate(63.623047 0)"/>
       <use xlink:href="#DejaVuSans-31" transform="translate(95.410156 0)"/>
       <use xlink:href="#DejaVuSans-30" transform="translate(159.033203 0)"/>
      </g>
     </g>
    </g>
    <g id="xtick_4">
     <g id="line2d_4">
      <g>
       <use xlink:href="#m4a59cff95b" x="345.76241" y="600.026627" style="stroke: #000000; stroke-width: 0.8"/>
      </g>
     </g>
     <g id="text_4">
      <!-- 0.15 -->
      <g transform="translate(327.727254 619.336096) scale(0.162 -0.162)">
       <use xlink:href="#DejaVuSans-30"/>
       <use xlink:href="#DejaVuSans-2e" transform="translate(63.623047 0)"/>
       <use xlink:href="#DejaVuSans-31" transform="translate(95.410156 0)"/>
       <use xlink:href="#DejaVuSans-35" transform="translate(159.033203 0)"/>
      </g>
     </g>
    </g>
    <g id="xtick_5">
     <g id="line2d_5">
      <g>
       <use xlink:href="#m4a59cff95b" x="432.787967" y="600.026627" style="stroke: #000000; stroke-width: 0.8"/>
      </g>
     </g>
     <g id="text_5">
      <!-- 0.20 -->
      <g transform="translate(414.752811 619.336096) scale(0.162 -0.162)">
       <defs>
        <path id="DejaVuSans-32" d="M 1228 531 
L 3431 531 
L 3431 0 
L 469 0 
L 469 531 
Q 828 903 1448 1529 
Q 2069 2156 2228 2338 
Q 2531 2678 2651 2914 
Q 2772 3150 2772 3378 
Q 2772 3750 2511 3984 
Q 2250 4219 1831 4219 
Q 1534 4219 1204 4116 
Q 875 4013 500 3803 
L 500 4441 
Q 881 4594 1212 4672 
Q 1544 4750 1819 4750 
Q 2544 4750 2975 4387 
Q 3406 4025 3406 3419 
Q 3406 3131 3298 2873 
Q 3191 2616 2906 2266 
Q 2828 2175 2409 1742 
Q 1991 1309 1228 531 
z
" transform="scale(0.015625)"/>
       </defs>
       <use xlink:href="#DejaVuSans-30"/>
       <use xlink:href="#DejaVuSans-2e" transform="translate(63.623047 0)"/>
       <use xlink:href="#DejaVuSans-32" transform="translate(95.410156 0)"/>
       <use xlink:href="#DejaVuSans-30" transform="translate(159.033203 0)"/>
      </g>
     </g>
    </g>
    <g id="xtick_6">
     <g id="line2d_6">
      <g>
       <use xlink:href="#m4a59cff95b" x="519.813524" y="600.026627" style="stroke: #000000; stroke-width: 0.8"/>
      </g>
     </g>
     <g id="text_6">
      <!-- 0.25 -->
      <g transform="translate(501.778367 619.336096) scale(0.162 -0.162)">
       <use xlink:href="#DejaVuSans-30"/>
       <use xlink:href="#DejaVuSans-2e" transform="translate(63.623047 0)"/>
       <use xlink:href="#DejaVuSans-32" transform="translate(95.410156 0)"/>
       <use xlink:href="#DejaVuSans-35" transform="translate(159.033203 0)"/>
      </g>
     </g>
    </g>
    <g id="xtick_7">
     <g id="line2d_7">
      <g>
       <use xlink:href="#m4a59cff95b" x="606.83908" y="600.026627" style="stroke: #000000; stroke-width: 0.8"/>
      </g>
     </g>
     <g id="text_7">
      <!-- 0.30 -->
      <g transform="translate(588.803924 619.336096) scale(0.162 -0.162)">
       <defs>
        <path id="DejaVuSans-33" d="M 2597 2516 
Q 3050 2419 3304 2112 
Q 3559 1806 3559 1356 
Q 3559 666 3084 287 
Q 2609 -91 1734 -91 
Q 1441 -91 1130 -33 
Q 819 25 488 141 
L 488 750 
Q 750 597 1062 519 
Q 1375 441 1716 441 
Q 2309 441 2620 675 
Q 2931 909 2931 1356 
Q 2931 1769 2642 2001 
Q 2353 2234 1838 2234 
L 1294 2234 
L 1294 2753 
L 1863 2753 
Q 2328 2753 2575 2939 
Q 2822 3125 2822 3475 
Q 2822 3834 2567 4026 
Q 2313 4219 1838 4219 
Q 1578 4219 1281 4162 
Q 984 4106 628 3988 
L 628 4550 
Q 988 4650 1302 4700 
Q 1616 4750 1894 4750 
Q 2613 4750 3031 4423 
Q 3450 4097 3450 3541 
Q 3450 3153 3228 2886 
Q 3006 2619 2597 2516 
z
" transform="scale(0.015625)"/>
       </defs>
       <use xlink:href="#DejaVuSans-30"/>
       <use xlink:href="#DejaVuSans-2e" transform="translate(63.623047 0)"/>
       <use xlink:href="#DejaVuSans-33" transform="translate(95.410156 0)"/>
       <use xlink:href="#DejaVuSans-30" transform="translate(159.033203 0)"/>
      </g>
     </g>
    </g>
    <g id="text_8">
     <!-- Effect Magnitude -->
     <g transform="translate(277.88481 640.382377) scale(0.18 -0.18)">
      <defs>
       <path id="DejaVuSans-45" d="M 628 4666 
L 3578 4666 
L 3578 4134 
L 1259 4134 
L 1259 2753 
L 3481 2753 
L 3481 2222 
L 1259 2222 
L 1259 531 
L 3634 531 
L 3634 0 
L 628 0 
L 628 4666 
z
" transform="scale(0.015625)"/>
       <path id="DejaVuSans-66" d="M 2375 4863 
L 2375 4384 
L 1825 4384 
Q 1516 4384 1395 4259 
Q 1275 4134 1275 3809 
L 1275 3500 
L 2222 3500 
L 2222 3053 
L 1275 3053 
L 1275 0 
L 697 0 
L 697 3053 
L 147 3053 
L 147 3500 
L 697 3500 
L 697 3744 
Q 697 4328 969 4595 
Q 1241 4863 1831 4863 
L 2375 4863 
z
" transform="scale(0.015625)"/>
       <path id="DejaVuSans-65" d="M 3597 1894 
L 3597 1613 
L 953 1613 
Q 991 1019 1311 708 
Q 1631 397 2203 397 
Q 2534 397 2845 478 
Q 3156 559 3463 722 
L 3463 178 
Q 3153 47 2828 -22 
Q 2503 -91 2169 -91 
Q 1331 -91 842 396 
Q 353 884 353 1716 
Q 353 2575 817 3079 
Q 1281 3584 2069 3584 
Q 2775 3584 3186 3129 
Q 3597 2675 3597 1894 
z
M 3022 2063 
Q 3016 2534 2758 2815 
Q 2500 3097 2075 3097 
Q 1594 3097 1305 2825 
Q 1016 2553 972 2059 
L 3022 2063 
z
" transform="scale(0.015625)"/>
       <path id="DejaVuSans-63" d="M 3122 3366 
L 3122 2828 
Q 2878 2963 2633 3030 
Q 2388 3097 2138 3097 
Q 1578 3097 1268 2742 
Q 959 2388 959 1747 
Q 959 1106 1268 751 
Q 1578 397 2138 397 
Q 2388 397 2633 464 
Q 2878 531 3122 666 
L 3122 134 
Q 2881 22 2623 -34 
Q 2366 -91 2075 -91 
Q 1284 -91 818 406 
Q 353 903 353 1747 
Q 353 2603 823 3093 
Q 1294 3584 2113 3584 
Q 2378 3584 2631 3529 
Q 2884 3475 3122 3366 
z
" transform="scale(0.015625)"/>
       <path id="DejaVuSans-74" d="M 1172 4494 
L 1172 3500 
L 2356 3500 
L 2356 3053 
L 1172 3053 
L 1172 1153 
Q 1172 725 1289 603 
Q 1406 481 1766 481 
L 2356 481 
L 2356 0 
L 1766 0 
Q 1100 0 847 248 
Q 594 497 594 1153 
L 594 3053 
L 172 3053 
L 172 3500 
L 594 3500 
L 594 4494 
L 1172 4494 
z
" transform="scale(0.015625)"/>
       <path id="DejaVuSans-20" transform="scale(0.015625)"/>
       <path id="DejaVuSans-4d" d="M 628 4666 
L 1569 4666 
L 2759 1491 
L 3956 4666 
L 4897 4666 
L 4897 0 
L 4281 0 
L 4281 4097 
L 3078 897 
L 2444 897 
L 1241 4097 
L 1241 0 
L 628 0 
L 628 4666 
z
" transform="scale(0.015625)"/>
       <path id="DejaVuSans-61" d="M 2194 1759 
Q 1497 1759 1228 1600 
Q 959 1441 959 1056 
Q 959 750 1161 570 
Q 1363 391 1709 391 
Q 2188 391 2477 730 
Q 2766 1069 2766 1631 
L 2766 1759 
L 2194 1759 
z
M 3341 1997 
L 3341 0 
L 2766 0 
L 2766 531 
Q 2569 213 2275 61 
Q 1981 -91 1556 -91 
Q 1019 -91 701 211 
Q 384 513 384 1019 
Q 384 1609 779 1909 
Q 1175 2209 1959 2209 
L 2766 2209 
L 2766 2266 
Q 2766 2663 2505 2880 
Q 2244 3097 1772 3097 
Q 1472 3097 1187 3025 
Q 903 2953 641 2809 
L 641 3341 
Q 956 3463 1253 3523 
Q 1550 3584 1831 3584 
Q 2591 3584 2966 3190 
Q 3341 2797 3341 1997 
z
" transform="scale(0.015625)"/>
       <path id="DejaVuSans-67" d="M 2906 1791 
Q 2906 2416 2648 2759 
Q 2391 3103 1925 3103 
Q 1463 3103 1205 2759 
Q 947 2416 947 1791 
Q 947 1169 1205 825 
Q 1463 481 1925 481 
Q 2391 481 2648 825 
Q 2906 1169 2906 1791 
z
M 3481 434 
Q 3481 -459 3084 -895 
Q 2688 -1331 1869 -1331 
Q 1566 -1331 1297 -1286 
Q 1028 -1241 775 -1147 
L 775 -588 
Q 1028 -725 1275 -790 
Q 1522 -856 1778 -856 
Q 2344 -856 2625 -561 
Q 2906 -266 2906 331 
L 2906 616 
Q 2728 306 2450 153 
Q 2172 0 1784 0 
Q 1141 0 747 490 
Q 353 981 353 1791 
Q 353 2603 747 3093 
Q 1141 3584 1784 3584 
Q 2172 3584 2450 3431 
Q 2728 3278 2906 2969 
L 2906 3500 
L 3481 3500 
L 3481 434 
z
" transform="scale(0.015625)"/>
       <path id="DejaVuSans-6e" d="M 3513 2113 
L 3513 0 
L 2938 0 
L 2938 2094 
Q 2938 2591 2744 2837 
Q 2550 3084 2163 3084 
Q 1697 3084 1428 2787 
Q 1159 2491 1159 1978 
L 1159 0 
L 581 0 
L 581 3500 
L 1159 3500 
L 1159 2956 
Q 1366 3272 1645 3428 
Q 1925 3584 2291 3584 
Q 2894 3584 3203 3211 
Q 3513 2838 3513 2113 
z
" transform="scale(0.015625)"/>
       <path id="DejaVuSans-69" d="M 603 3500 
L 1178 3500 
L 1178 0 
L 603 0 
L 603 3500 
z
M 603 4863 
L 1178 4863 
L 1178 4134 
L 603 4134 
L 603 4863 
z
" transform="scale(0.015625)"/>
       <path id="DejaVuSans-75" d="M 544 1381 
L 544 3500 
L 1119 3500 
L 1119 1403 
Q 1119 906 1312 657 
Q 1506 409 1894 409 
Q 2359 409 2629 706 
Q 2900 1003 2900 1516 
L 2900 3500 
L 3475 3500 
L 3475 0 
L 2900 0 
L 2900 538 
Q 2691 219 2414 64 
Q 2138 -91 1772 -91 
Q 1169 -91 856 284 
Q 544 659 544 1381 
z
M 1991 3584 
L 1991 3584 
z
" transform="scale(0.015625)"/>
       <path id="DejaVuSans-64" d="M 2906 2969 
L 2906 4863 
L 3481 4863 
L 3481 0 
L 2906 0 
L 2906 525 
Q 2725 213 2448 61 
Q 2172 -91 1784 -91 
Q 1150 -91 751 415 
Q 353 922 353 1747 
Q 353 2572 751 3078 
Q 1150 3584 1784 3584 
Q 2172 3584 2448 3432 
Q 2725 3281 2906 2969 
z
M 947 1747 
Q 947 1113 1208 752 
Q 1469 391 1925 391 
Q 2381 391 2643 752 
Q 2906 1113 2906 1747 
Q 2906 2381 2643 2742 
Q 2381 3103 1925 3103 
Q 1469 3103 1208 2742 
Q 947 2381 947 1747 
z
" transform="scale(0.015625)"/>
      </defs>
      <use xlink:href="#DejaVuSans-45"/>
      <use xlink:href="#DejaVuSans-66" transform="translate(63.183594 0)"/>
      <use xlink:href="#DejaVuSans-66" transform="translate(98.388672 0)"/>
      <use xlink:href="#DejaVuSans-65" transform="translate(133.59375 0)"/>
      <use xlink:href="#DejaVuSans-63" transform="translate(195.117188 0)"/>
      <use xlink:href="#DejaVuSans-74" transform="translate(250.097656 0)"/>
      <use xlink:href="#DejaVuSans-20" transform="translate(289.306641 0)"/>
      <use xlink:href="#DejaVuSans-4d" transform="translate(321.09375 0)"/>
      <use xlink:href="#DejaVuSans-61" transform="translate(407.373047 0)"/>
      <use xlink:href="#DejaVuSans-67" transform="translate(468.652344 0)"/>
      <use xlink:href="#DejaVuSans-6e" transform="translate(532.128906 0)"/>
      <use xlink:href="#DejaVuSans-69" transform="translate(595.507812 0)"/>
      <use xlink:href="#DejaVuSans-74" transform="translate(623.291016 0)"/>
      <use xlink:href="#DejaVuSans-75" transform="translate(662.5 0)"/>
      <use xlink:href="#DejaVuSans-64" transform="translate(725.878906 0)"/>
      <use xlink:href="#DejaVuSans-65" transform="translate(789.355469 0)"/>
     </g>
    </g>
   </g>
   <g id="matplotlib.axis_2">
    <g id="ytick_1">
     <g id="line2d_8">
      <defs>
       <path id="m1d430089a4" d="M 0 0 
L -3.5 0 
" style="stroke: #000000; stroke-width: 0.8"/>
      </defs>
      <g>
       <use xlink:href="#m1d430089a4" x="76.85344" y="598.492423" style="stroke: #000000; stroke-width: 0.8"/>
      </g>
     </g>
     <g id="text_9">
      <!-- 0.0 -->
      <g transform="translate(44.090378 604.647157) scale(0.162 -0.162)">
       <use xlink:href="#DejaVuSans-30"/>
       <use xlink:href="#DejaVuSans-2e" transform="translate(63.623047 0)"/>
       <use xlink:href="#DejaVuSans-30" transform="translate(95.410156 0)"/>
      </g>
     </g>
    </g>
    <g id="ytick_2">
     <g id="line2d_9">
      <g>
       <use xlink:href="#m1d430089a4" x="76.85344" y="505.716062" style="stroke: #000000; stroke-width: 0.8"/>
      </g>
     </g>
     <g id="text_10">
      <!-- 0.2 -->
      <g transform="translate(44.090378 511.870796) scale(0.162 -0.162)">
       <use xlink:href="#DejaVuSans-30"/>
       <use xlink:href="#DejaVuSans-2e" transform="translate(63.623047 0)"/>
       <use xlink:href="#DejaVuSans-32" transform="translate(95.410156 0)"/>
      </g>
     </g>
    </g>
    <g id="ytick_3">
     <g id="line2d_10">
      <g>
       <use xlink:href="#m1d430089a4" x="76.85344" y="412.939701" style="stroke: #000000; stroke-width: 0.8"/>
      </g>
     </g>
     <g id="text_11">
      <!-- 0.4 -->
      <g transform="translate(44.090378 419.094435) scale(0.162 -0.162)">
       <defs>
        <path id="DejaVuSans-34" d="M 2419 4116 
L 825 1625 
L 2419 1625 
L 2419 4116 
z
M 2253 4666 
L 3047 4666 
L 3047 1625 
L 3713 1625 
L 3713 1100 
L 3047 1100 
L 3047 0 
L 2419 0 
L 2419 1100 
L 313 1100 
L 313 1709 
L 2253 4666 
z
" transform="scale(0.015625)"/>
       </defs>
       <use xlink:href="#DejaVuSans-30"/>
       <use xlink:href="#DejaVuSans-2e" transform="translate(63.623047 0)"/>
       <use xlink:href="#DejaVuSans-34" transform="translate(95.410156 0)"/>
      </g>
     </g>
    </g>
    <g id="ytick_4">
     <g id="line2d_11">
      <g>
       <use xlink:href="#m1d430089a4" x="76.85344" y="320.16334" style="stroke: #000000; stroke-width: 0.8"/>
      </g>
     </g>
     <g id="text_12">
      <!-- 0.6 -->
      <g transform="translate(44.090378 326.318075) scale(0.162 -0.162)">
       <defs>
        <path id="DejaVuSans-36" d="M 2113 2584 
Q 1688 2584 1439 2293 
Q 1191 2003 1191 1497 
Q 1191 994 1439 701 
Q 1688 409 2113 409 
Q 2538 409 2786 701 
Q 3034 994 3034 1497 
Q 3034 2003 2786 2293 
Q 2538 2584 2113 2584 
z
M 3366 4563 
L 3366 3988 
Q 3128 4100 2886 4159 
Q 2644 4219 2406 4219 
Q 1781 4219 1451 3797 
Q 1122 3375 1075 2522 
Q 1259 2794 1537 2939 
Q 1816 3084 2150 3084 
Q 2853 3084 3261 2657 
Q 3669 2231 3669 1497 
Q 3669 778 3244 343 
Q 2819 -91 2113 -91 
Q 1303 -91 875 529 
Q 447 1150 447 2328 
Q 447 3434 972 4092 
Q 1497 4750 2381 4750 
Q 2619 4750 2861 4703 
Q 3103 4656 3366 4563 
z
" transform="scale(0.015625)"/>
       </defs>
       <use xlink:href="#DejaVuSans-30"/>
       <use xlink:href="#DejaVuSans-2e" transform="translate(63.623047 0)"/>
       <use xlink:href="#DejaVuSans-36" transform="translate(95.410156 0)"/>
      </g>
     </g>
    </g>
    <g id="ytick_5">
     <g id="line2d_12">
      <g>
       <use xlink:href="#m1d430089a4" x="76.85344" y="227.386979" style="stroke: #000000; stroke-width: 0.8"/>
      </g>
     </g>
     <g id="text_13">
      <!-- 0.8 -->
      <g transform="translate(44.090378 233.541714) scale(0.162 -0.162)">
       <defs>
        <path id="DejaVuSans-38" d="M 2034 2216 
Q 1584 2216 1326 1975 
Q 1069 1734 1069 1313 
Q 1069 891 1326 650 
Q 1584 409 2034 409 
Q 2484 409 2743 651 
Q 3003 894 3003 1313 
Q 3003 1734 2745 1975 
Q 2488 2216 2034 2216 
z
M 1403 2484 
Q 997 2584 770 2862 
Q 544 3141 544 3541 
Q 544 4100 942 4425 
Q 1341 4750 2034 4750 
Q 2731 4750 3128 4425 
Q 3525 4100 3525 3541 
Q 3525 3141 3298 2862 
Q 3072 2584 2669 2484 
Q 3125 2378 3379 2068 
Q 3634 1759 3634 1313 
Q 3634 634 3220 271 
Q 2806 -91 2034 -91 
Q 1263 -91 848 271 
Q 434 634 434 1313 
Q 434 1759 690 2068 
Q 947 2378 1403 2484 
z
M 1172 3481 
Q 1172 3119 1398 2916 
Q 1625 2713 2034 2713 
Q 2441 2713 2670 2916 
Q 2900 3119 2900 3481 
Q 2900 3844 2670 4047 
Q 2441 4250 2034 4250 
Q 1625 4250 1398 4047 
Q 1172 3844 1172 3481 
z
" transform="scale(0.015625)"/>
       </defs>
       <use xlink:href="#DejaVuSans-30"/>
       <use xlink:href="#DejaVuSans-2e" transform="translate(63.623047 0)"/>
       <use xlink:href="#DejaVuSans-38" transform="translate(95.410156 0)"/>
      </g>
     </g>
    </g>
    <g id="ytick_6">
     <g id="line2d_13">
      <g>
       <use xlink:href="#m1d430089a4" x="76.85344" y="134.610619" style="stroke: #000000; stroke-width: 0.8"/>
      </g>
     </g>
     <g id="text_14">
      <!-- 1.0 -->
      <g transform="translate(44.090378 140.765353) scale(0.162 -0.162)">
       <use xlink:href="#DejaVuSans-31"/>
       <use xlink:href="#DejaVuSans-2e" transform="translate(63.623047 0)"/>
       <use xlink:href="#DejaVuSans-30" transform="translate(95.410156 0)"/>
      </g>
     </g>
    </g>
    <g id="text_15">
     <!-- 1-P(Type II Error) -->
     <g transform="translate(36.34694 436.953095) rotate(-90) scale(0.18 -0.18)">
      <defs>
       <path id="DejaVuSans-2d" d="M 313 2009 
L 1997 2009 
L 1997 1497 
L 313 1497 
L 313 2009 
z
" transform="scale(0.015625)"/>
       <path id="DejaVuSans-50" d="M 1259 4147 
L 1259 2394 
L 2053 2394 
Q 2494 2394 2734 2622 
Q 2975 2850 2975 3272 
Q 2975 3691 2734 3919 
Q 2494 4147 2053 4147 
L 1259 4147 
z
M 628 4666 
L 2053 4666 
Q 2838 4666 3239 4311 
Q 3641 3956 3641 3272 
Q 3641 2581 3239 2228 
Q 2838 1875 2053 1875 
L 1259 1875 
L 1259 0 
L 628 0 
L 628 4666 
z
" transform="scale(0.015625)"/>
       <path id="DejaVuSans-28" d="M 1984 4856 
Q 1566 4138 1362 3434 
Q 1159 2731 1159 2009 
Q 1159 1288 1364 580 
Q 1569 -128 1984 -844 
L 1484 -844 
Q 1016 -109 783 600 
Q 550 1309 550 2009 
Q 550 2706 781 3412 
Q 1013 4119 1484 4856 
L 1984 4856 
z
" transform="scale(0.015625)"/>
       <path id="DejaVuSans-54" d="M -19 4666 
L 3928 4666 
L 3928 4134 
L 2272 4134 
L 2272 0 
L 1638 0 
L 1638 4134 
L -19 4134 
L -19 4666 
z
" transform="scale(0.015625)"/>
       <path id="DejaVuSans-79" d="M 2059 -325 
Q 1816 -950 1584 -1140 
Q 1353 -1331 966 -1331 
L 506 -1331 
L 506 -850 
L 844 -850 
Q 1081 -850 1212 -737 
Q 1344 -625 1503 -206 
L 1606 56 
L 191 3500 
L 800 3500 
L 1894 763 
L 2988 3500 
L 3597 3500 
L 2059 -325 
z
" transform="scale(0.015625)"/>
       <path id="DejaVuSans-70" d="M 1159 525 
L 1159 -1331 
L 581 -1331 
L 581 3500 
L 1159 3500 
L 1159 2969 
Q 1341 3281 1617 3432 
Q 1894 3584 2278 3584 
Q 2916 3584 3314 3078 
Q 3713 2572 3713 1747 
Q 3713 922 3314 415 
Q 2916 -91 2278 -91 
Q 1894 -91 1617 61 
Q 1341 213 1159 525 
z
M 3116 1747 
Q 3116 2381 2855 2742 
Q 2594 3103 2138 3103 
Q 1681 3103 1420 2742 
Q 1159 2381 1159 1747 
Q 1159 1113 1420 752 
Q 1681 391 2138 391 
Q 2594 391 2855 752 
Q 3116 1113 3116 1747 
z
" transform="scale(0.015625)"/>
       <path id="DejaVuSans-49" d="M 628 4666 
L 1259 4666 
L 1259 0 
L 628 0 
L 628 4666 
z
" transform="scale(0.015625)"/>
       <path id="DejaVuSans-72" d="M 2631 2963 
Q 2534 3019 2420 3045 
Q 2306 3072 2169 3072 
Q 1681 3072 1420 2755 
Q 1159 2438 1159 1844 
L 1159 0 
L 581 0 
L 581 3500 
L 1159 3500 
L 1159 2956 
Q 1341 3275 1631 3429 
Q 1922 3584 2338 3584 
Q 2397 3584 2469 3576 
Q 2541 3569 2628 3553 
L 2631 2963 
z
" transform="scale(0.015625)"/>
       <path id="DejaVuSans-6f" d="M 1959 3097 
Q 1497 3097 1228 2736 
Q 959 2375 959 1747 
Q 959 1119 1226 758 
Q 1494 397 1959 397 
Q 2419 397 2687 759 
Q 2956 1122 2956 1747 
Q 2956 2369 2687 2733 
Q 2419 3097 1959 3097 
z
M 1959 3584 
Q 2709 3584 3137 3096 
Q 3566 2609 3566 1747 
Q 3566 888 3137 398 
Q 2709 -91 1959 -91 
Q 1206 -91 779 398 
Q 353 888 353 1747 
Q 353 2609 779 3096 
Q 1206 3584 1959 3584 
z
" transform="scale(0.015625)"/>
       <path id="DejaVuSans-29" d="M 513 4856 
L 1013 4856 
Q 1481 4119 1714 3412 
Q 1947 2706 1947 2009 
Q 1947 1309 1714 600 
Q 1481 -109 1013 -844 
L 513 -844 
Q 928 -128 1133 580 
Q 1338 1288 1338 2009 
Q 1338 2731 1133 3434 
Q 928 4138 513 4856 
z
" transform="scale(0.015625)"/>
      </defs>
      <use xlink:href="#DejaVuSans-31"/>
      <use xlink:href="#DejaVuSans-2d" transform="translate(63.623047 0)"/>
      <use xlink:href="#DejaVuSans-50" transform="translate(99.707031 0)"/>
      <use xlink:href="#DejaVuSans-28" transform="translate(160.009766 0)"/>
      <use xlink:href="#DejaVuSans-54" transform="translate(199.023438 0)"/>
      <use xlink:href="#DejaVuSans-79" transform="translate(244.482422 0)"/>
      <use xlink:href="#DejaVuSans-70" transform="translate(303.662109 0)"/>
      <use xlink:href="#DejaVuSans-65" transform="translate(367.138672 0)"/>
      <use xlink:href="#DejaVuSans-20" transform="translate(428.662109 0)"/>
      <use xlink:href="#DejaVuSans-49" transform="translate(460.449219 0)"/>
      <use xlink:href="#DejaVuSans-49" transform="translate(489.941406 0)"/>
      <use xlink:href="#DejaVuSans-20" transform="translate(519.433594 0)"/>
      <use xlink:href="#DejaVuSans-45" transform="translate(551.220703 0)"/>
      <use xlink:href="#DejaVuSans-72" transform="translate(614.404297 0)"/>
      <use xlink:href="#DejaVuSans-72" transform="translate(653.767578 0)"/>
      <use xlink:href="#DejaVuSans-6f" transform="translate(692.630859 0)"/>
      <use xlink:href="#DejaVuSans-72" transform="translate(753.8125 0)"/>
      <use xlink:href="#DejaVuSans-29" transform="translate(794.925781 0)"/>
     </g>
    </g>
   </g>
   <g id="line2d_14">
    <path d="M 102.090851 578.378508 
L 119.495963 559.566705 
L 136.901074 530.813619 
L 154.306185 489.422325 
L 171.711297 446.33429 
L 189.116408 402.288246 
L 206.52152 361.351135 
L 223.926631 329.094995 
L 241.331742 300.779449 
L 258.736854 276.742816 
L 276.141965 257.447619 
L 293.547076 241.176305 
L 310.952188 227.824761 
L 328.357299 217.033519 
L 345.76241 207.029496 
L 363.167522 201.205217 
L 380.572633 192.384871 
L 397.977744 188.169704 
L 415.382856 183.774478 
L 432.787967 179.699685 
L 450.193078 175.461158 
L 467.59819 172.294869 
L 485.003301 168.759947 
L 502.408412 166.775168 
L 519.813524 164.289996 
L 537.218635 163.056989 
L 554.623746 160.963957 
L 572.028858 159.58202 
L 589.433969 158.969794 
L 606.83908 156.797399 
" clip-path="url(#pbe2c2df9f0)" style="fill: none; stroke: #001261; stroke-width: 3; stroke-linecap: square"/>
   </g>
   <g id="line2d_15">
    <path d="M 102.090851 571.598323 
L 119.495963 537.175348 
L 136.901074 479.908035 
L 154.306185 415.572046 
L 171.711297 358.304733 
L 189.116408 313.352377 
L 206.52152 278.892586 
L 223.926631 252.937295 
L 241.331742 231.712861 
L 258.736854 215.145654 
L 276.141965 203.419753 
L 293.547076 194.491869 
L 310.952188 186.263489 
L 328.357299 178.458494 
L 345.76241 174.15102 
L 363.167522 169.825138 
L 380.572633 166.640553 
L 397.977744 164.376368 
L 415.382856 161.099742 
L 432.787967 158.835557 
L 450.193078 156.387292 
L 467.59819 155.30122 
L 485.003301 154.086291 
L 502.408412 152.632059 
L 519.813524 152.135042 
L 537.218635 152.043002 
L 554.623746 151.159418 
L 572.028858 150.128569 
L 589.433969 149.705185 
L 606.83908 149.962897 
" clip-path="url(#pbe2c2df9f0)" style="fill: none; stroke-dasharray: 12,4.5; stroke-dashoffset: 0; stroke: #034a85; stroke-width: 3"/>
   </g>
   <g id="line2d_16">
    <path d="M 102.090851 566.039104 
L 119.495963 514.128522 
L 136.901074 435.121351 
L 154.306185 363.808728 
L 171.711297 308.584703 
L 189.116408 270.038334 
L 206.52152 239.701937 
L 223.926631 218.6984 
L 241.331742 202.407312 
L 258.736854 190.791859 
L 276.141965 184.367465 
L 293.547076 176.617693 
L 310.952188 169.80673 
L 328.357299 165.8306 
L 345.76241 163.014175 
L 363.167522 159.64551 
L 380.572633 158.099237 
L 397.977744 155.779828 
L 415.382856 154.288779 
L 432.787967 152.926587 
L 450.193078 150.901706 
L 467.59819 151.030562 
L 485.003301 150.607178 
L 502.408412 149.502697 
L 519.813524 148.729561 
L 537.218635 148.600705 
L 554.623746 147.661896 
L 572.028858 148.232545 
L 589.433969 147.183288 
L 606.83908 147.036024 
" clip-path="url(#pbe2c2df9f0)" style="fill: none; stroke-dasharray: 3,3; stroke-dashoffset: 0; stroke: #4b90b3; stroke-width: 3"/>
   </g>
   <g id="line2d_17">
    <path d="M 102.090851 553.263947 
L 119.495963 469.194574 
L 136.901074 369.938594 
L 154.306185 301.626476 
L 171.711297 253.692023 
L 189.116408 223.447666 
L 206.52152 203.162041 
L 223.926631 187.957026 
L 241.331742 178.660982 
L 258.736854 170.763947 
L 276.141965 164.17388 
L 293.547076 161.909695 
L 310.952188 158.117645 
L 328.357299 155.963908 
L 345.76241 153.718131 
L 363.167522 152.411162 
L 380.572633 151.472354 
L 397.977744 149.797225 
L 415.382856 149.686777 
L 432.787967 149.429065 
L 450.193078 147.827568 
L 467.59819 147.974833 
L 485.003301 147.993241 
L 502.408412 148.066873 
L 519.813524 147.201696 
L 537.218635 147.827568 
L 554.623746 146.354928 
L 572.028858 146.649456 
L 589.433969 146.170848 
L 606.83908 146.649456 
" clip-path="url(#pbe2c2df9f0)" style="fill: none; stroke-dasharray: 9,3.75,4.5,3.75; stroke-dashoffset: 0; stroke: #e7c6b2; stroke-width: 3"/>
   </g>
   <g id="line2d_18">
    <path d="M 102.090851 539.034557 
L 119.495963 417.044687 
L 136.901074 313.499641 
L 154.306185 252.679583 
L 171.711297 216.397399 
L 189.116408 192.761516 
L 206.52152 178.753022 
L 223.926631 170.26693 
L 241.331742 163.106215 
L 258.736854 159.074861 
L 276.141965 155.927092 
L 293.547076 153.405195 
L 310.952188 151.32509 
L 328.357299 150.993746 
L 345.76241 148.711153 
L 363.167522 148.987273 
L 380.572633 147.643488 
L 397.977744 147.07284 
L 415.382856 147.569856 
L 432.787967 146.907168 
L 450.193078 147.054432 
L 467.59819 146.446968 
L 485.003301 146.281296 
L 502.408412 146.115624 
L 519.813524 145.87632 
L 537.218635 145.489751 
L 554.623746 145.710648 
L 572.028858 145.581791 
L 589.433969 145.96836 
L 606.83908 145.416119 
" clip-path="url(#pbe2c2df9f0)" style="fill: none; stroke-dasharray: 15,3,3,3; stroke-dashoffset: 0; stroke: #590008; stroke-width: 3"/>
   </g>
   <g id="line2d_19"/>
   <g id="line2d_20"/>
   <g id="line2d_21"/>
   <g id="line2d_22"/>
   <g id="line2d_23"/>
   <g id="patch_3">
    <path d="M 76.85344 600.026627 
L 76.85344 123.768 
" style="fill: none; stroke: #000000; stroke-width: 0.8; stroke-linejoin: miter; stroke-linecap: square"/>
   </g>
   <g id="patch_4">
    <path d="M 632.076492 600.026627 
L 632.076492 123.768 
" style="fill: none; stroke: #000000; stroke-width: 0.8; stroke-linejoin: miter; stroke-linecap: square"/>
   </g>
   <g id="patch_5">
    <path d="M 76.85344 600.026627 
L 632.076492 600.026627 
" style="fill: none; stroke: #000000; stroke-width: 0.8; stroke-linejoin: miter; stroke-linecap: square"/>
   </g>
   <g id="patch_6">
    <path d="M 76.85344 123.768 
L 632.076492 123.768 
" style="fill: none; stroke: #000000; stroke-width: 0.8; stroke-linejoin: miter; stroke-linecap: square"/>
   </g>
   <g id="text_16">
    <!-- N Trials -->
    <g transform="translate(318.168091 117.768) scale(0.2 -0.2)">
     <defs>
      <path id="DejaVuSans-4e" d="M 628 4666 
L 1478 4666 
L 3547 763 
L 3547 4666 
L 4159 4666 
L 4159 0 
L 3309 0 
L 1241 3903 
L 1241 0 
L 628 0 
L 628 4666 
z
" transform="scale(0.015625)"/>
      <path id="DejaVuSans-6c" d="M 603 4863 
L 1178 4863 
L 1178 0 
L 603 0 
L 603 4863 
z
" transform="scale(0.015625)"/>
      <path id="DejaVuSans-73" d="M 2834 3397 
L 2834 2853 
Q 2591 2978 2328 3040 
Q 2066 3103 1784 3103 
Q 1356 3103 1142 2972 
Q 928 2841 928 2578 
Q 928 2378 1081 2264 
Q 1234 2150 1697 2047 
L 1894 2003 
Q 2506 1872 2764 1633 
Q 3022 1394 3022 966 
Q 3022 478 2636 193 
Q 2250 -91 1575 -91 
Q 1294 -91 989 -36 
Q 684 19 347 128 
L 347 722 
Q 666 556 975 473 
Q 1284 391 1588 391 
Q 1994 391 2212 530 
Q 2431 669 2431 922 
Q 2431 1156 2273 1281 
Q 2116 1406 1581 1522 
L 1381 1569 
Q 847 1681 609 1914 
Q 372 2147 372 2553 
Q 372 3047 722 3315 
Q 1072 3584 1716 3584 
Q 2034 3584 2315 3537 
Q 2597 3491 2834 3397 
z
" transform="scale(0.015625)"/>
     </defs>
     <use xlink:href="#DejaVuSans-4e"/>
     <use xlink:href="#DejaVuSans-20" transform="translate(74.804688 0)"/>
     <use xlink:href="#DejaVuSans-54" transform="translate(106.591797 0)"/>
     <use xlink:href="#DejaVuSans-72" transform="translate(152.925781 0)"/>
     <use xlink:href="#DejaVuSans-69" transform="translate(194.039062 0)"/>
     <use xlink:href="#DejaVuSans-61" transform="translate(221.822266 0)"/>
     <use xlink:href="#DejaVuSans-6c" transform="translate(283.101562 0)"/>
     <use xlink:href="#DejaVuSans-73" transform="translate(310.884766 0)"/>
    </g>
   </g>
   <g id="legend_1">
    <g id="patch_7">
     <path d="M 537.974742 591.926627 
L 620.736492 591.926627 
Q 623.976492 591.926627 623.976492 588.686627 
L 623.976492 445.89319 
Q 623.976492 442.65319 620.736492 442.65319 
L 537.974742 442.65319 
Q 534.734742 442.65319 534.734742 445.89319 
L 534.734742 588.686627 
Q 534.734742 591.926627 537.974742 591.926627 
z
" style="fill: #ffffff; opacity: 0.8; stroke: #cccccc; stroke-linejoin: miter"/>
    </g>
    <g id="text_17">
     <!-- N Trials -->
     <g transform="translate(546.688429 462.810377) scale(0.18 -0.18)">
      <use xlink:href="#DejaVuSans-4e"/>
      <use xlink:href="#DejaVuSans-20" transform="translate(74.804688 0)"/>
      <use xlink:href="#DejaVuSans-54" transform="translate(106.591797 0)"/>
      <use xlink:href="#DejaVuSans-72" transform="translate(152.925781 0)"/>
      <use xlink:href="#DejaVuSans-69" transform="translate(194.039062 0)"/>
      <use xlink:href="#DejaVuSans-61" transform="translate(221.822266 0)"/>
      <use xlink:href="#DejaVuSans-6c" transform="translate(283.101562 0)"/>
      <use xlink:href="#DejaVuSans-73" transform="translate(310.884766 0)"/>
     </g>
    </g>
    <g id="line2d_24">
     <path d="M 541.214742 481.293283 
L 557.414742 481.293283 
L 573.614742 481.293283 
" style="fill: none; stroke: #001261; stroke-width: 3; stroke-linecap: square"/>
    </g>
    <g id="text_18">
     <!-- 100 -->
     <g transform="translate(586.574742 486.963283) scale(0.162 -0.162)">
      <use xlink:href="#DejaVuSans-31"/>
      <use xlink:href="#DejaVuSans-30" transform="translate(63.623047 0)"/>
      <use xlink:href="#DejaVuSans-30" transform="translate(127.246094 0)"/>
     </g>
    </g>
    <g id="line2d_25">
     <path d="M 541.214742 505.071846 
L 557.414742 505.071846 
L 573.614742 505.071846 
" style="fill: none; stroke-dasharray: 12,4.5; stroke-dashoffset: 0; stroke: #034a85; stroke-width: 3"/>
    </g>
    <g id="text_19">
     <!-- 200 -->
     <g transform="translate(586.574742 510.741846) scale(0.162 -0.162)">
      <use xlink:href="#DejaVuSans-32"/>
      <use xlink:href="#DejaVuSans-30" transform="translate(63.623047 0)"/>
      <use xlink:href="#DejaVuSans-30" transform="translate(127.246094 0)"/>
     </g>
    </g>
    <g id="line2d_26">
     <path d="M 541.214742 528.850408 
L 557.414742 528.850408 
L 573.614742 528.850408 
" style="fill: none; stroke-dasharray: 3,3; stroke-dashoffset: 0; stroke: #4b90b3; stroke-width: 3"/>
    </g>
    <g id="text_20">
     <!-- 300 -->
     <g transform="translate(586.574742 534.520408) scale(0.162 -0.162)">
      <use xlink:href="#DejaVuSans-33"/>
      <use xlink:href="#DejaVuSans-30" transform="translate(63.623047 0)"/>
      <use xlink:href="#DejaVuSans-30" transform="translate(127.246094 0)"/>
     </g>
    </g>
    <g id="line2d_27">
     <path d="M 541.214742 552.628971 
L 557.414742 552.628971 
L 573.614742 552.628971 
" style="fill: none; stroke-dasharray: 9,3.75,4.5,3.75; stroke-dashoffset: 0; stroke: #e7c6b2; stroke-width: 3"/>
    </g>
    <g id="text_21">
     <!-- 500 -->
     <g transform="translate(586.574742 558.298971) scale(0.162 -0.162)">
      <use xlink:href="#DejaVuSans-35"/>
      <use xlink:href="#DejaVuSans-30" transform="translate(63.623047 0)"/>
      <use xlink:href="#DejaVuSans-30" transform="translate(127.246094 0)"/>
     </g>
    </g>
    <g id="line2d_28">
     <path d="M 541.214742 576.407533 
L 557.414742 576.407533 
L 573.614742 576.407533 
" style="fill: none; stroke-dasharray: 15,3,3,3; stroke-dashoffset: 0; stroke: #590008; stroke-width: 3"/>
    </g>
    <g id="text_22">
     <!-- 800 -->
     <g transform="translate(586.574742 582.077533) scale(0.162 -0.162)">
      <use xlink:href="#DejaVuSans-38"/>
      <use xlink:href="#DejaVuSans-30" transform="translate(63.623047 0)"/>
      <use xlink:href="#DejaVuSans-30" transform="translate(127.246094 0)"/>
     </g>
    </g>
   </g>
  </g>
  <g id="axes_2">
   <g id="patch_8">
    <path d="M 709.81984 600.026627 
L 1265.042892 600.026627 
L 1265.042892 123.768 
L 709.81984 123.768 
z
" style="fill: #ffffff"/>
   </g>
   <g id="matplotlib.axis_3">
    <g id="xtick_8">
     <g id="line2d_29">
      <g>
       <use xlink:href="#m4a59cff95b" x="717.65214" y="600.026627" style="stroke: #000000; stroke-width: 0.8"/>
      </g>
     </g>
     <g id="text_23">
      <!-- 0.00 -->
      <g transform="translate(699.616984 619.336096) scale(0.162 -0.162)">
       <use xlink:href="#DejaVuSans-30"/>
       <use xlink:href="#DejaVuSans-2e" transform="translate(63.623047 0)"/>
       <use xlink:href="#DejaVuSans-30" transform="translate(95.410156 0)"/>
       <use xlink:href="#DejaVuSans-30" transform="translate(159.033203 0)"/>
      </g>
     </g>
    </g>
    <g id="xtick_9">
     <g id="line2d_30">
      <g>
       <use xlink:href="#m4a59cff95b" x="804.677697" y="600.026627" style="stroke: #000000; stroke-width: 0.8"/>
      </g>
     </g>
     <g id="text_24">
      <!-- 0.05 -->
      <g transform="translate(786.642541 619.336096) scale(0.162 -0.162)">
       <use xlink:href="#DejaVuSans-30"/>
       <use xlink:href="#DejaVuSans-2e" transform="translate(63.623047 0)"/>
       <use xlink:href="#DejaVuSans-30" transform="translate(95.410156 0)"/>
       <use xlink:href="#DejaVuSans-35" transform="translate(159.033203 0)"/>
      </g>
     </g>
    </g>
    <g id="xtick_10">
     <g id="line2d_31">
      <g>
       <use xlink:href="#m4a59cff95b" x="891.703254" y="600.026627" style="stroke: #000000; stroke-width: 0.8"/>
      </g>
     </g>
     <g id="text_25">
      <!-- 0.10 -->
      <g transform="translate(873.668097 619.336096) scale(0.162 -0.162)">
       <use xlink:href="#DejaVuSans-30"/>
       <use xlink:href="#DejaVuSans-2e" transform="translate(63.623047 0)"/>
       <use xlink:href="#DejaVuSans-31" transform="translate(95.410156 0)"/>
       <use xlink:href="#DejaVuSans-30" transform="translate(159.033203 0)"/>
      </g>
     </g>
    </g>
    <g id="xtick_11">
     <g id="line2d_32">
      <g>
       <use xlink:href="#m4a59cff95b" x="978.72881" y="600.026627" style="stroke: #000000; stroke-width: 0.8"/>
      </g>
     </g>
     <g id="text_26">
      <!-- 0.15 -->
      <g transform="translate(960.693654 619.336096) scale(0.162 -0.162)">
       <use xlink:href="#DejaVuSans-30"/>
       <use xlink:href="#DejaVuSans-2e" transform="translate(63.623047 0)"/>
       <use xlink:href="#DejaVuSans-31" transform="translate(95.410156 0)"/>
       <use xlink:href="#DejaVuSans-35" transform="translate(159.033203 0)"/>
      </g>
     </g>
    </g>
    <g id="xtick_12">
     <g id="line2d_33">
      <g>
       <use xlink:href="#m4a59cff95b" x="1065.754367" y="600.026627" style="stroke: #000000; stroke-width: 0.8"/>
      </g>
     </g>
     <g id="text_27">
      <!-- 0.20 -->
      <g transform="translate(1047.719211 619.336096) scale(0.162 -0.162)">
       <use xlink:href="#DejaVuSans-30"/>
       <use xlink:href="#DejaVuSans-2e" transform="translate(63.623047 0)"/>
       <use xlink:href="#DejaVuSans-32" transform="translate(95.410156 0)"/>
       <use xlink:href="#DejaVuSans-30" transform="translate(159.033203 0)"/>
      </g>
     </g>
    </g>
    <g id="xtick_13">
     <g id="line2d_34">
      <g>
       <use xlink:href="#m4a59cff95b" x="1152.779924" y="600.026627" style="stroke: #000000; stroke-width: 0.8"/>
      </g>
     </g>
     <g id="text_28">
      <!-- 0.25 -->
      <g transform="translate(1134.744767 619.336096) scale(0.162 -0.162)">
       <use xlink:href="#DejaVuSans-30"/>
       <use xlink:href="#DejaVuSans-2e" transform="translate(63.623047 0)"/>
       <use xlink:href="#DejaVuSans-32" transform="translate(95.410156 0)"/>
       <use xlink:href="#DejaVuSans-35" transform="translate(159.033203 0)"/>
      </g>
     </g>
    </g>
    <g id="xtick_14">
     <g id="line2d_35">
      <g>
       <use xlink:href="#m4a59cff95b" x="1239.80548" y="600.026627" style="stroke: #000000; stroke-width: 0.8"/>
      </g>
     </g>
     <g id="text_29">
      <!-- 0.30 -->
      <g transform="translate(1221.770324 619.336096) scale(0.162 -0.162)">
       <use xlink:href="#DejaVuSans-30"/>
       <use xlink:href="#DejaVuSans-2e" transform="translate(63.623047 0)"/>
       <use xlink:href="#DejaVuSans-33" transform="translate(95.410156 0)"/>
       <use xlink:href="#DejaVuSans-30" transform="translate(159.033203 0)"/>
      </g>
     </g>
    </g>
    <g id="text_30">
     <!-- Effect Magnitude -->
     <g transform="translate(910.85121 640.382377) scale(0.18 -0.18)">
      <use xlink:href="#DejaVuSans-45"/>
      <use xlink:href="#DejaVuSans-66" transform="translate(63.183594 0)"/>
      <use xlink:href="#DejaVuSans-66" transform="translate(98.388672 0)"/>
      <use xlink:href="#DejaVuSans-65" transform="translate(133.59375 0)"/>
      <use xlink:href="#DejaVuSans-63" transform="translate(195.117188 0)"/>
      <use xlink:href="#DejaVuSans-74" transform="translate(250.097656 0)"/>
      <use xlink:href="#DejaVuSans-20" transform="translate(289.306641 0)"/>
      <use xlink:href="#DejaVuSans-4d" transform="translate(321.09375 0)"/>
      <use xlink:href="#DejaVuSans-61" transform="translate(407.373047 0)"/>
      <use xlink:href="#DejaVuSans-67" transform="translate(468.652344 0)"/>
      <use xlink:href="#DejaVuSans-6e" transform="translate(532.128906 0)"/>
      <use xlink:href="#DejaVuSans-69" transform="translate(595.507812 0)"/>
      <use xlink:href="#DejaVuSans-74" transform="translate(623.291016 0)"/>
      <use xlink:href="#DejaVuSans-75" transform="translate(662.5 0)"/>
      <use xlink:href="#DejaVuSans-64" transform="translate(725.878906 0)"/>
      <use xlink:href="#DejaVuSans-65" transform="translate(789.355469 0)"/>
     </g>
    </g>
   </g>
   <g id="matplotlib.axis_4">
    <g id="ytick_7">
     <g id="line2d_36">
      <g>
       <use xlink:href="#m1d430089a4" x="709.81984" y="510.938219" style="stroke: #000000; stroke-width: 0.8"/>
      </g>
     </g>
     <g id="text_31">
      <!-- 0.2 -->
      <g transform="translate(677.056778 517.092953) scale(0.162 -0.162)">
       <use xlink:href="#DejaVuSans-30"/>
       <use xlink:href="#DejaVuSans-2e" transform="translate(63.623047 0)"/>
       <use xlink:href="#DejaVuSans-32" transform="translate(95.410156 0)"/>
      </g>
     </g>
    </g>
    <g id="ytick_8">
     <g id="line2d_37">
      <g>
       <use xlink:href="#m1d430089a4" x="709.81984" y="419.094762" style="stroke: #000000; stroke-width: 0.8"/>
      </g>
     </g>
     <g id="text_32">
      <!-- 0.4 -->
      <g transform="translate(677.056778 425.249497) scale(0.162 -0.162)">
       <use xlink:href="#DejaVuSans-30"/>
       <use xlink:href="#DejaVuSans-2e" transform="translate(63.623047 0)"/>
       <use xlink:href="#DejaVuSans-34" transform="translate(95.410156 0)"/>
      </g>
     </g>
    </g>
    <g id="ytick_9">
     <g id="line2d_38">
      <g>
       <use xlink:href="#m1d430089a4" x="709.81984" y="327.251306" style="stroke: #000000; stroke-width: 0.8"/>
      </g>
     </g>
     <g id="text_33">
      <!-- 0.6 -->
      <g transform="translate(677.056778 333.40604) scale(0.162 -0.162)">
       <use xlink:href="#DejaVuSans-30"/>
       <use xlink:href="#DejaVuSans-2e" transform="translate(63.623047 0)"/>
       <use xlink:href="#DejaVuSans-36" transform="translate(95.410156 0)"/>
      </g>
     </g>
    </g>
    <g id="ytick_10">
     <g id="line2d_39">
      <g>
       <use xlink:href="#m1d430089a4" x="709.81984" y="235.407849" style="stroke: #000000; stroke-width: 0.8"/>
      </g>
     </g>
     <g id="text_34">
      <!-- 0.8 -->
      <g transform="translate(677.056778 241.562584) scale(0.162 -0.162)">
       <use xlink:href="#DejaVuSans-30"/>
       <use xlink:href="#DejaVuSans-2e" transform="translate(63.623047 0)"/>
       <use xlink:href="#DejaVuSans-38" transform="translate(95.410156 0)"/>
      </g>
     </g>
    </g>
    <g id="ytick_11">
     <g id="line2d_40">
      <g>
       <use xlink:href="#m1d430089a4" x="709.81984" y="143.564393" style="stroke: #000000; stroke-width: 0.8"/>
      </g>
     </g>
     <g id="text_35">
      <!-- 1.0 -->
      <g transform="translate(677.056778 149.719127) scale(0.162 -0.162)">
       <use xlink:href="#DejaVuSans-31"/>
       <use xlink:href="#DejaVuSans-2e" transform="translate(63.623047 0)"/>
       <use xlink:href="#DejaVuSans-30" transform="translate(95.410156 0)"/>
      </g>
     </g>
    </g>
    <g id="text_36">
     <!-- 1-P(Type II Error) -->
     <g transform="translate(669.31334 436.953095) rotate(-90) scale(0.18 -0.18)">
      <use xlink:href="#DejaVuSans-31"/>
      <use xlink:href="#DejaVuSans-2d" transform="translate(63.623047 0)"/>
      <use xlink:href="#DejaVuSans-50" transform="translate(99.707031 0)"/>
      <use xlink:href="#DejaVuSans-28" transform="translate(160.009766 0)"/>
      <use xlink:href="#DejaVuSans-54" transform="translate(199.023438 0)"/>
      <use xlink:href="#DejaVuSans-79" transform="translate(244.482422 0)"/>
      <use xlink:href="#DejaVuSans-70" transform="translate(303.662109 0)"/>
      <use xlink:href="#DejaVuSans-65" transform="translate(367.138672 0)"/>
      <use xlink:href="#DejaVuSans-20" transform="translate(428.662109 0)"/>
      <use xlink:href="#DejaVuSans-49" transform="translate(460.449219 0)"/>
      <use xlink:href="#DejaVuSans-49" transform="translate(489.941406 0)"/>
      <use xlink:href="#DejaVuSans-20" transform="translate(519.433594 0)"/>
      <use xlink:href="#DejaVuSans-45" transform="translate(551.220703 0)"/>
      <use xlink:href="#DejaVuSans-72" transform="translate(614.404297 0)"/>
      <use xlink:href="#DejaVuSans-72" transform="translate(653.767578 0)"/>
      <use xlink:href="#DejaVuSans-6f" transform="translate(692.630859 0)"/>
      <use xlink:href="#DejaVuSans-72" transform="translate(753.8125 0)"/>
      <use xlink:href="#DejaVuSans-29" transform="translate(794.925781 0)"/>
     </g>
    </g>
   </g>
   <g id="line2d_41">
    <path d="M 735.057251 578.378508 
L 752.462363 548.782503 
L 769.867474 500.71637 
L 787.272585 448.753594 
L 804.677697 401.440472 
L 822.082808 361.531214 
L 839.48792 327.074023 
L 856.893031 301.520869 
L 874.298142 279.212638 
L 891.703254 260.986669 
L 909.108365 247.307687 
L 926.513476 236.749061 
L 943.918588 225.261868 
L 961.323699 217.539915 
L 978.72881 210.3081 
L 996.133922 205.737301 
L 1013.539033 200.972025 
L 1030.944144 196.542584 
L 1048.349256 195.016513 
L 1065.754367 191.383568 
L 1083.159478 188.373285 
L 1100.56459 186.751108 
L 1117.969701 185.00806 
L 1135.374812 183.088133 
L 1152.779924 181.590845 
L 1170.185035 181.199592 
L 1187.590146 179.291992 
L 1204.995258 178.802933 
L 1222.400369 177.263595 
L 1239.80548 176.711117 
" clip-path="url(#p94119894d2)" style="fill: none; stroke: #001261; stroke-width: 3; stroke-linecap: square"/>
   </g>
   <g id="line2d_42">
    <path d="M 735.057251 566.209367 
L 752.462363 502.043573 
L 769.867474 423.498816 
L 787.272585 358.620605 
L 804.677697 309.495079 
L 822.082808 271.45933 
L 839.48792 244.700359 
L 856.893031 224.10596 
L 874.298142 208.372268 
L 891.703254 197.29874 
L 909.108365 188.545322 
L 926.513476 181.337834 
L 943.918588 176.178728 
L 961.323699 172.078564 
L 978.72881 168.497682 
L 996.133922 166.183669 
L 1013.539033 163.176147 
L 1030.944144 161.237546 
L 1048.349256 159.741266 
L 1065.754367 158.639182 
L 1083.159478 156.627946 
L 1100.56459 155.754839 
L 1117.969701 155.008958 
L 1135.374812 154.163905 
L 1152.779924 153.401164 
L 1170.185035 153.145791 
L 1187.590146 152.215233 
L 1204.995258 151.964976 
L 1222.400369 152.130285 
L 1239.80548 151.756292 
" clip-path="url(#p94119894d2)" style="fill: none; stroke-dasharray: 12,4.5; stroke-dashoffset: 0; stroke: #ece5e0; stroke-width: 3"/>
   </g>
   <g id="line2d_43">
    <path d="M 735.057251 554.277981 
L 752.462363 462.966052 
L 769.867474 370.832941 
L 787.272585 305.743578 
L 804.677697 259.659327 
L 822.082808 229.940951 
L 839.48792 208.121279 
L 856.893031 193.111463 
L 874.298142 182.375964 
L 891.703254 173.648624 
L 909.108365 168.079214 
L 926.513476 163.451237 
L 943.918588 159.819387 
L 961.323699 156.76067 
L 978.72881 154.752787 
L 996.133922 153.042618 
L 1013.539033 151.43168 
L 1030.944144 151.237013 
L 1048.349256 149.04549 
L 1065.754367 148.713305 
L 1083.159478 147.685194 
L 1100.56459 147.475655 
L 1117.969701 146.808196 
L 1135.374812 146.830191 
L 1152.779924 146.205399 
L 1170.185035 146.139955 
L 1187.590146 145.92014 
L 1204.995258 145.667979 
L 1222.400369 145.74488 
L 1239.80548 145.416119 
" clip-path="url(#p94119894d2)" style="fill: none; stroke-dasharray: 3,3; stroke-dashoffset: 0; stroke: #590008; stroke-width: 3"/>
   </g>
   <g id="line2d_44"/>
   <g id="line2d_45"/>
   <g id="line2d_46"/>
   <g id="patch_9">
    <path d="M 709.81984 600.026627 
L 709.81984 123.768 
" style="fill: none; stroke: #000000; stroke-width: 0.8; stroke-linejoin: miter; stroke-linecap: square"/>
   </g>
   <g id="patch_10">
    <path d="M 1265.042892 600.026627 
L 1265.042892 123.768 
" style="fill: none; stroke: #000000; stroke-width: 0.8; stroke-linejoin: miter; stroke-linecap: square"/>
   </g>
   <g id="patch_11">
    <path d="M 709.81984 600.026627 
L 1265.042892 600.026627 
" style="fill: none; stroke: #000000; stroke-width: 0.8; stroke-linejoin: miter; stroke-linecap: square"/>
   </g>
   <g id="patch_12">
    <path d="M 709.81984 123.768 
L 1265.042892 123.768 
" style="fill: none; stroke: #000000; stroke-width: 0.8; stroke-linejoin: miter; stroke-linecap: square"/>
   </g>
   <g id="text_37">
    <!-- N Subjects -->
    <g transform="translate(934.178241 117.768) scale(0.2 -0.2)">
     <defs>
      <path id="DejaVuSans-53" d="M 3425 4513 
L 3425 3897 
Q 3066 4069 2747 4153 
Q 2428 4238 2131 4238 
Q 1616 4238 1336 4038 
Q 1056 3838 1056 3469 
Q 1056 3159 1242 3001 
Q 1428 2844 1947 2747 
L 2328 2669 
Q 3034 2534 3370 2195 
Q 3706 1856 3706 1288 
Q 3706 609 3251 259 
Q 2797 -91 1919 -91 
Q 1588 -91 1214 -16 
Q 841 59 441 206 
L 441 856 
Q 825 641 1194 531 
Q 1563 422 1919 422 
Q 2459 422 2753 634 
Q 3047 847 3047 1241 
Q 3047 1584 2836 1778 
Q 2625 1972 2144 2069 
L 1759 2144 
Q 1053 2284 737 2584 
Q 422 2884 422 3419 
Q 422 4038 858 4394 
Q 1294 4750 2059 4750 
Q 2388 4750 2728 4690 
Q 3069 4631 3425 4513 
z
" transform="scale(0.015625)"/>
      <path id="DejaVuSans-62" d="M 3116 1747 
Q 3116 2381 2855 2742 
Q 2594 3103 2138 3103 
Q 1681 3103 1420 2742 
Q 1159 2381 1159 1747 
Q 1159 1113 1420 752 
Q 1681 391 2138 391 
Q 2594 391 2855 752 
Q 3116 1113 3116 1747 
z
M 1159 2969 
Q 1341 3281 1617 3432 
Q 1894 3584 2278 3584 
Q 2916 3584 3314 3078 
Q 3713 2572 3713 1747 
Q 3713 922 3314 415 
Q 2916 -91 2278 -91 
Q 1894 -91 1617 61 
Q 1341 213 1159 525 
L 1159 0 
L 581 0 
L 581 4863 
L 1159 4863 
L 1159 2969 
z
" transform="scale(0.015625)"/>
      <path id="DejaVuSans-6a" d="M 603 3500 
L 1178 3500 
L 1178 -63 
Q 1178 -731 923 -1031 
Q 669 -1331 103 -1331 
L -116 -1331 
L -116 -844 
L 38 -844 
Q 366 -844 484 -692 
Q 603 -541 603 -63 
L 603 3500 
z
M 603 4863 
L 1178 4863 
L 1178 4134 
L 603 4134 
L 603 4863 
z
" transform="scale(0.015625)"/>
     </defs>
     <use xlink:href="#DejaVuSans-4e"/>
     <use xlink:href="#DejaVuSans-20" transform="translate(74.804688 0)"/>
     <use xlink:href="#DejaVuSans-53" transform="translate(106.591797 0)"/>
     <use xlink:href="#DejaVuSans-75" transform="translate(170.068359 0)"/>
     <use xlink:href="#DejaVuSans-62" transform="translate(233.447266 0)"/>
     <use xlink:href="#DejaVuSans-6a" transform="translate(296.923828 0)"/>
     <use xlink:href="#DejaVuSans-65" transform="translate(324.707031 0)"/>
     <use xlink:href="#DejaVuSans-63" transform="translate(386.230469 0)"/>
     <use xlink:href="#DejaVuSans-74" transform="translate(441.210938 0)"/>
     <use xlink:href="#DejaVuSans-73" transform="translate(480.419922 0)"/>
    </g>
   </g>
   <g id="legend_2">
    <g id="patch_13">
     <path d="M 1151.367267 591.926627 
L 1253.702892 591.926627 
Q 1256.942892 591.926627 1256.942892 588.686627 
L 1256.942892 493.450315 
Q 1256.942892 490.210315 1253.702892 490.210315 
L 1151.367267 490.210315 
Q 1148.127267 490.210315 1148.127267 493.450315 
L 1148.127267 588.686627 
Q 1148.127267 591.926627 1151.367267 591.926627 
z
" style="fill: #ffffff; opacity: 0.8; stroke: #cccccc; stroke-linejoin: miter"/>
    </g>
    <g id="text_38">
     <!-- N Subjects -->
     <g transform="translate(1154.607267 510.367502) scale(0.18 -0.18)">
      <use xlink:href="#DejaVuSans-4e"/>
      <use xlink:href="#DejaVuSans-20" transform="translate(74.804688 0)"/>
      <use xlink:href="#DejaVuSans-53" transform="translate(106.591797 0)"/>
      <use xlink:href="#DejaVuSans-75" transform="translate(170.068359 0)"/>
      <use xlink:href="#DejaVuSans-62" transform="translate(233.447266 0)"/>
      <use xlink:href="#DejaVuSans-6a" transform="translate(296.923828 0)"/>
      <use xlink:href="#DejaVuSans-65" transform="translate(324.707031 0)"/>
      <use xlink:href="#DejaVuSans-63" transform="translate(386.230469 0)"/>
      <use xlink:href="#DejaVuSans-74" transform="translate(441.210938 0)"/>
      <use xlink:href="#DejaVuSans-73" transform="translate(480.419922 0)"/>
     </g>
    </g>
    <g id="line2d_47">
     <path d="M 1169.547829 528.850408 
L 1185.747829 528.850408 
L 1201.947829 528.850408 
" style="fill: none; stroke: #001261; stroke-width: 3; stroke-linecap: square"/>
    </g>
    <g id="text_39">
     <!-- 10 -->
     <g transform="translate(1214.907829 534.520408) scale(0.162 -0.162)">
      <use xlink:href="#DejaVuSans-31"/>
      <use xlink:href="#DejaVuSans-30" transform="translate(63.623047 0)"/>
     </g>
    </g>
    <g id="line2d_48">
     <path d="M 1169.547829 552.628971 
L 1185.747829 552.628971 
L 1201.947829 552.628971 
" style="fill: none; stroke-dasharray: 12,4.5; stroke-dashoffset: 0; stroke: #ece5e0; stroke-width: 3"/>
    </g>
    <g id="text_40">
     <!-- 20 -->
     <g transform="translate(1214.907829 558.298971) scale(0.162 -0.162)">
      <use xlink:href="#DejaVuSans-32"/>
      <use xlink:href="#DejaVuSans-30" transform="translate(63.623047 0)"/>
     </g>
    </g>
    <g id="line2d_49">
     <path d="M 1169.547829 576.407533 
L 1185.747829 576.407533 
L 1201.947829 576.407533 
" style="fill: none; stroke-dasharray: 3,3; stroke-dashoffset: 0; stroke: #590008; stroke-width: 3"/>
    </g>
    <g id="text_41">
     <!-- 30 -->
     <g transform="translate(1214.907829 582.077533) scale(0.162 -0.162)">
      <use xlink:href="#DejaVuSans-33"/>
      <use xlink:href="#DejaVuSans-30" transform="translate(63.623047 0)"/>
     </g>
    </g>
   </g>
  </g>
  <g id="axes_3">
   <g id="patch_14">
    <path d="M 76.85344 1176.39192 
L 632.076492 1176.39192 
L 632.076492 700.133293 
L 76.85344 700.133293 
z
" style="fill: #ffffff"/>
   </g>
   <g id="matplotlib.axis_5">
    <g id="xtick_15">
     <g id="line2d_50">
      <g>
       <use xlink:href="#m4a59cff95b" x="84.68574" y="1176.39192" style="stroke: #000000; stroke-width: 0.8"/>
      </g>
     </g>
     <g id="text_42">
      <!-- 0.00 -->
      <g transform="translate(66.650584 1195.701389) scale(0.162 -0.162)">
       <use xlink:href="#DejaVuSans-30"/>
       <use xlink:href="#DejaVuSans-2e" transform="translate(63.623047 0)"/>
       <use xlink:href="#DejaVuSans-30" transform="translate(95.410156 0)"/>
       <use xlink:href="#DejaVuSans-30" transform="translate(159.033203 0)"/>
      </g>
     </g>
    </g>
    <g id="xtick_16">
     <g id="line2d_51">
      <g>
       <use xlink:href="#m4a59cff95b" x="171.711297" y="1176.39192" style="stroke: #000000; stroke-width: 0.8"/>
      </g>
     </g>
     <g id="text_43">
      <!-- 0.05 -->
      <g transform="translate(153.676141 1195.701389) scale(0.162 -0.162)">
       <use xlink:href="#DejaVuSans-30"/>
       <use xlink:href="#DejaVuSans-2e" transform="translate(63.623047 0)"/>
       <use xlink:href="#DejaVuSans-30" transform="translate(95.410156 0)"/>
       <use xlink:href="#DejaVuSans-35" transform="translate(159.033203 0)"/>
      </g>
     </g>
    </g>
    <g id="xtick_17">
     <g id="line2d_52">
      <g>
       <use xlink:href="#m4a59cff95b" x="258.736854" y="1176.39192" style="stroke: #000000; stroke-width: 0.8"/>
      </g>
     </g>
     <g id="text_44">
      <!-- 0.10 -->
      <g transform="translate(240.701697 1195.701389) scale(0.162 -0.162)">
       <use xlink:href="#DejaVuSans-30"/>
       <use xlink:href="#DejaVuSans-2e" transform="translate(63.623047 0)"/>
       <use xlink:href="#DejaVuSans-31" transform="translate(95.410156 0)"/>
       <use xlink:href="#DejaVuSans-30" transform="translate(159.033203 0)"/>
      </g>
     </g>
    </g>
    <g id="xtick_18">
     <g id="line2d_53">
      <g>
       <use xlink:href="#m4a59cff95b" x="345.76241" y="1176.39192" style="stroke: #000000; stroke-width: 0.8"/>
      </g>
     </g>
     <g id="text_45">
      <!-- 0.15 -->
      <g transform="translate(327.727254 1195.701389) scale(0.162 -0.162)">
       <use xlink:href="#DejaVuSans-30"/>
       <use xlink:href="#DejaVuSans-2e" transform="translate(63.623047 0)"/>
       <use xlink:href="#DejaVuSans-31" transform="translate(95.410156 0)"/>
       <use xlink:href="#DejaVuSans-35" transform="translate(159.033203 0)"/>
      </g>
     </g>
    </g>
    <g id="xtick_19">
     <g id="line2d_54">
      <g>
       <use xlink:href="#m4a59cff95b" x="432.787967" y="1176.39192" style="stroke: #000000; stroke-width: 0.8"/>
      </g>
     </g>
     <g id="text_46">
      <!-- 0.20 -->
      <g transform="translate(414.752811 1195.701389) scale(0.162 -0.162)">
       <use xlink:href="#DejaVuSans-30"/>
       <use xlink:href="#DejaVuSans-2e" transform="translate(63.623047 0)"/>
       <use xlink:href="#DejaVuSans-32" transform="translate(95.410156 0)"/>
       <use xlink:href="#DejaVuSans-30" transform="translate(159.033203 0)"/>
      </g>
     </g>
    </g>
    <g id="xtick_20">
     <g id="line2d_55">
      <g>
       <use xlink:href="#m4a59cff95b" x="519.813524" y="1176.39192" style="stroke: #000000; stroke-width: 0.8"/>
      </g>
     </g>
     <g id="text_47">
      <!-- 0.25 -->
      <g transform="translate(501.778367 1195.701389) scale(0.162 -0.162)">
       <use xlink:href="#DejaVuSans-30"/>
       <use xlink:href="#DejaVuSans-2e" transform="translate(63.623047 0)"/>
       <use xlink:href="#DejaVuSans-32" transform="translate(95.410156 0)"/>
       <use xlink:href="#DejaVuSans-35" transform="translate(159.033203 0)"/>
      </g>
     </g>
    </g>
    <g id="xtick_21">
     <g id="line2d_56">
      <g>
       <use xlink:href="#m4a59cff95b" x="606.83908" y="1176.39192" style="stroke: #000000; stroke-width: 0.8"/>
      </g>
     </g>
     <g id="text_48">
      <!-- 0.30 -->
      <g transform="translate(588.803924 1195.701389) scale(0.162 -0.162)">
       <use xlink:href="#DejaVuSans-30"/>
       <use xlink:href="#DejaVuSans-2e" transform="translate(63.623047 0)"/>
       <use xlink:href="#DejaVuSans-33" transform="translate(95.410156 0)"/>
       <use xlink:href="#DejaVuSans-30" transform="translate(159.033203 0)"/>
      </g>
     </g>
    </g>
    <g id="text_49">
     <!-- Effect Magnitude -->
     <g transform="translate(277.88481 1216.74767) scale(0.18 -0.18)">
      <use xlink:href="#DejaVuSans-45"/>
      <use xlink:href="#DejaVuSans-66" transform="translate(63.183594 0)"/>
      <use xlink:href="#DejaVuSans-66" transform="translate(98.388672 0)"/>
      <use xlink:href="#DejaVuSans-65" transform="translate(133.59375 0)"/>
      <use xlink:href="#DejaVuSans-63" transform="translate(195.117188 0)"/>
      <use xlink:href="#DejaVuSans-74" transform="translate(250.097656 0)"/>
      <use xlink:href="#DejaVuSans-20" transform="translate(289.306641 0)"/>
      <use xlink:href="#DejaVuSans-4d" transform="translate(321.09375 0)"/>
      <use xlink:href="#DejaVuSans-61" transform="translate(407.373047 0)"/>
      <use xlink:href="#DejaVuSans-67" transform="translate(468.652344 0)"/>
      <use xlink:href="#DejaVuSans-6e" transform="translate(532.128906 0)"/>
      <use xlink:href="#DejaVuSans-69" transform="translate(595.507812 0)"/>
      <use xlink:href="#DejaVuSans-74" transform="translate(623.291016 0)"/>
      <use xlink:href="#DejaVuSans-75" transform="translate(662.5 0)"/>
      <use xlink:href="#DejaVuSans-64" transform="translate(725.878906 0)"/>
      <use xlink:href="#DejaVuSans-65" transform="translate(789.355469 0)"/>
     </g>
    </g>
   </g>
   <g id="matplotlib.axis_6">
    <g id="ytick_12">
     <g id="line2d_57">
      <g>
       <use xlink:href="#m1d430089a4" x="76.85344" y="1095.419023" style="stroke: #000000; stroke-width: 0.8"/>
      </g>
     </g>
     <g id="text_50">
      <!-- 0.2 -->
      <g transform="translate(44.090378 1101.573758) scale(0.162 -0.162)">
       <use xlink:href="#DejaVuSans-30"/>
       <use xlink:href="#DejaVuSans-2e" transform="translate(63.623047 0)"/>
       <use xlink:href="#DejaVuSans-32" transform="translate(95.410156 0)"/>
      </g>
     </g>
    </g>
    <g id="ytick_13">
     <g id="line2d_58">
      <g>
       <use xlink:href="#m1d430089a4" x="76.85344" y="998.379711" style="stroke: #000000; stroke-width: 0.8"/>
      </g>
     </g>
     <g id="text_51">
      <!-- 0.4 -->
      <g transform="translate(44.090378 1004.534446) scale(0.162 -0.162)">
       <use xlink:href="#DejaVuSans-30"/>
       <use xlink:href="#DejaVuSans-2e" transform="translate(63.623047 0)"/>
       <use xlink:href="#DejaVuSans-34" transform="translate(95.410156 0)"/>
      </g>
     </g>
    </g>
    <g id="ytick_14">
     <g id="line2d_59">
      <g>
       <use xlink:href="#m1d430089a4" x="76.85344" y="901.3404" style="stroke: #000000; stroke-width: 0.8"/>
      </g>
     </g>
     <g id="text_52">
      <!-- 0.6 -->
      <g transform="translate(44.090378 907.495134) scale(0.162 -0.162)">
       <use xlink:href="#DejaVuSans-30"/>
       <use xlink:href="#DejaVuSans-2e" transform="translate(63.623047 0)"/>
       <use xlink:href="#DejaVuSans-36" transform="translate(95.410156 0)"/>
      </g>
     </g>
    </g>
    <g id="ytick_15">
     <g id="line2d_60">
      <g>
       <use xlink:href="#m1d430089a4" x="76.85344" y="804.301088" style="stroke: #000000; stroke-width: 0.8"/>
      </g>
     </g>
     <g id="text_53">
      <!-- 0.8 -->
      <g transform="translate(44.090378 810.455822) scale(0.162 -0.162)">
       <use xlink:href="#DejaVuSans-30"/>
       <use xlink:href="#DejaVuSans-2e" transform="translate(63.623047 0)"/>
       <use xlink:href="#DejaVuSans-38" transform="translate(95.410156 0)"/>
      </g>
     </g>
    </g>
    <g id="ytick_16">
     <g id="line2d_61">
      <g>
       <use xlink:href="#m1d430089a4" x="76.85344" y="707.261776" style="stroke: #000000; stroke-width: 0.8"/>
      </g>
     </g>
     <g id="text_54">
      <!-- 1.0 -->
      <g transform="translate(44.090378 713.41651) scale(0.162 -0.162)">
       <use xlink:href="#DejaVuSans-31"/>
       <use xlink:href="#DejaVuSans-2e" transform="translate(63.623047 0)"/>
       <use xlink:href="#DejaVuSans-30" transform="translate(95.410156 0)"/>
      </g>
     </g>
    </g>
    <g id="text_55">
     <!-- 1-P(Type II Error) -->
     <g transform="translate(36.34694 1013.318388) rotate(-90) scale(0.18 -0.18)">
      <use xlink:href="#DejaVuSans-31"/>
      <use xlink:href="#DejaVuSans-2d" transform="translate(63.623047 0)"/>
      <use xlink:href="#DejaVuSans-50" transform="translate(99.707031 0)"/>
      <use xlink:href="#DejaVuSans-28" transform="translate(160.009766 0)"/>
      <use xlink:href="#DejaVuSans-54" transform="translate(199.023438 0)"/>
      <use xlink:href="#DejaVuSans-79" transform="translate(244.482422 0)"/>
      <use xlink:href="#DejaVuSans-70" transform="translate(303.662109 0)"/>
      <use xlink:href="#DejaVuSans-65" transform="translate(367.138672 0)"/>
      <use xlink:href="#DejaVuSans-20" transform="translate(428.662109 0)"/>
      <use xlink:href="#DejaVuSans-49" transform="translate(460.449219 0)"/>
      <use xlink:href="#DejaVuSans-49" transform="translate(489.941406 0)"/>
      <use xlink:href="#DejaVuSans-20" transform="translate(519.433594 0)"/>
      <use xlink:href="#DejaVuSans-45" transform="translate(551.220703 0)"/>
      <use xlink:href="#DejaVuSans-72" transform="translate(614.404297 0)"/>
      <use xlink:href="#DejaVuSans-72" transform="translate(653.767578 0)"/>
      <use xlink:href="#DejaVuSans-6f" transform="translate(692.630859 0)"/>
      <use xlink:href="#DejaVuSans-72" transform="translate(753.8125 0)"/>
      <use xlink:href="#DejaVuSans-29" transform="translate(794.925781 0)"/>
     </g>
    </g>
   </g>
   <g id="line2d_62">
    <path d="M 102.090851 1153.434772 
L 119.495963 1088.804809 
L 136.901074 1012.192248 
L 154.306185 947.455192 
L 171.711297 895.363341 
L 189.116408 859.82215 
L 206.52152 829.000322 
L 223.926631 808.519786 
L 241.331742 792.100257 
L 258.736854 778.698545 
L 276.141965 768.115631 
L 293.547076 760.615664 
L 310.952188 753.421767 
L 328.357299 748.238454 
L 345.76241 743.247393 
L 363.167522 740.872469 
L 380.572633 738.201266 
L 397.977744 734.723405 
L 415.382856 733.204322 
L 432.787967 731.237137 
L 450.193078 729.601384 
L 467.59819 728.945332 
L 485.003301 727.210441 
L 502.408412 727.215513 
L 519.813524 724.946496 
L 537.218635 725.055555 
L 554.623746 723.254047 
L 572.028858 723.05206 
L 589.433969 723.140544 
L 606.83908 722.77351 
" clip-path="url(#pead080cb9f)" style="fill: none; stroke: #001261; stroke-width: 3; stroke-linecap: square"/>
   </g>
   <g id="line2d_63">
    <path d="M 102.090851 1153.223571 
L 119.495963 1088.443571 
L 136.901074 1010.598334 
L 154.306185 946.767716 
L 171.711297 896.665108 
L 189.116408 858.740108 
L 206.52152 829.759836 
L 223.926631 807.900963 
L 241.331742 791.009426 
L 258.736854 777.518855 
L 276.141965 769.157121 
L 293.547076 760.301954 
L 310.952188 753.221919 
L 328.357299 747.822104 
L 345.76241 743.729034 
L 363.167522 739.69565 
L 380.572633 736.655478 
L 397.977744 734.918103 
L 415.382856 732.833342 
L 432.787967 730.893031 
L 450.193078 728.718774 
L 467.59819 727.425589 
L 485.003301 726.744298 
L 502.408412 725.399389 
L 519.813524 725.535553 
L 537.218635 724.68937 
L 554.623746 723.639589 
L 572.028858 722.652602 
L 589.433969 722.977456 
L 606.83908 722.977456 
" clip-path="url(#pead080cb9f)" style="fill: none; stroke-dasharray: 12,4.5; stroke-dashoffset: 0; stroke: #71a8c4; stroke-width: 3"/>
   </g>
   <g id="line2d_64">
    <path d="M 102.090851 1154.233346 
L 119.495963 1089.699208 
L 136.901074 1011.36993 
L 154.306185 948.348059 
L 171.711297 900.047447 
L 189.116408 858.954171 
L 206.52152 831.908908 
L 223.926631 808.268492 
L 241.331742 790.873799 
L 258.736854 777.620369 
L 276.141965 767.598858 
L 293.547076 759.752989 
L 310.952188 753.15437 
L 328.357299 747.820862 
L 345.76241 742.925744 
L 363.167522 741.275206 
L 380.572633 737.330078 
L 397.977744 734.737673 
L 415.382856 732.908078 
L 432.787967 731.843917 
L 450.193078 728.914207 
L 467.59819 728.455865 
L 485.003301 727.645463 
L 502.408412 725.529742 
L 519.813524 724.617222 
L 537.218635 724.791936 
L 554.623746 724.491614 
L 572.028858 723.973005 
L 589.433969 722.975519 
L 606.83908 722.388474 
" clip-path="url(#pead080cb9f)" style="fill: none; stroke-dasharray: 3,3; stroke-dashoffset: 0; stroke: #d39774; stroke-width: 3"/>
   </g>
   <g id="line2d_65">
    <path d="M 102.090851 1154.743801 
L 119.495963 1088.023759 
L 136.901074 1012.714188 
L 154.306185 947.999675 
L 171.711297 897.721995 
L 189.116408 860.607658 
L 206.52152 830.420646 
L 223.926631 810.267846 
L 241.331742 792.259939 
L 258.736854 778.791231 
L 276.141965 768.308808 
L 293.547076 760.992373 
L 310.952188 753.258626 
L 328.357299 748.210606 
L 345.76241 744.116643 
L 363.167522 740.058669 
L 380.572633 736.489368 
L 397.977744 735.055637 
L 415.382856 733.154366 
L 432.787967 730.962266 
L 450.193078 729.190605 
L 467.59819 727.774778 
L 485.003301 726.569626 
L 502.408412 726.15291 
L 519.813524 725.135408 
L 537.218635 724.690567 
L 554.623746 723.530694 
L 572.028858 723.83993 
L 589.433969 722.602618 
L 606.83908 721.781412 
" clip-path="url(#pead080cb9f)" style="fill: none; stroke-dasharray: 9,3.75,4.5,3.75; stroke-dashoffset: 0; stroke: #590008; stroke-width: 3"/>
   </g>
   <g id="line2d_66"/>
   <g id="line2d_67"/>
   <g id="line2d_68"/>
   <g id="line2d_69"/>
   <g id="patch_15">
    <path d="M 76.85344 1176.39192 
L 76.85344 700.133293 
" style="fill: none; stroke: #000000; stroke-width: 0.8; stroke-linejoin: miter; stroke-linecap: square"/>
   </g>
   <g id="patch_16">
    <path d="M 632.076492 1176.39192 
L 632.076492 700.133293 
" style="fill: none; stroke: #000000; stroke-width: 0.8; stroke-linejoin: miter; stroke-linecap: square"/>
   </g>
   <g id="patch_17">
    <path d="M 76.85344 1176.39192 
L 632.076492 1176.39192 
" style="fill: none; stroke: #000000; stroke-width: 0.8; stroke-linejoin: miter; stroke-linecap: square"/>
   </g>
   <g id="patch_18">
    <path d="M 76.85344 700.133293 
L 632.076492 700.133293 
" style="fill: none; stroke: #000000; stroke-width: 0.8; stroke-linejoin: miter; stroke-linecap: square"/>
   </g>
   <g id="text_56">
    <!-- N Phase Bins -->
    <g transform="translate(289.583716 694.133293) scale(0.2 -0.2)">
     <defs>
      <path id="DejaVuSans-68" d="M 3513 2113 
L 3513 0 
L 2938 0 
L 2938 2094 
Q 2938 2591 2744 2837 
Q 2550 3084 2163 3084 
Q 1697 3084 1428 2787 
Q 1159 2491 1159 1978 
L 1159 0 
L 581 0 
L 581 4863 
L 1159 4863 
L 1159 2956 
Q 1366 3272 1645 3428 
Q 1925 3584 2291 3584 
Q 2894 3584 3203 3211 
Q 3513 2838 3513 2113 
z
" transform="scale(0.015625)"/>
      <path id="DejaVuSans-42" d="M 1259 2228 
L 1259 519 
L 2272 519 
Q 2781 519 3026 730 
Q 3272 941 3272 1375 
Q 3272 1813 3026 2020 
Q 2781 2228 2272 2228 
L 1259 2228 
z
M 1259 4147 
L 1259 2741 
L 2194 2741 
Q 2656 2741 2882 2914 
Q 3109 3088 3109 3444 
Q 3109 3797 2882 3972 
Q 2656 4147 2194 4147 
L 1259 4147 
z
M 628 4666 
L 2241 4666 
Q 2963 4666 3353 4366 
Q 3744 4066 3744 3513 
Q 3744 3084 3544 2831 
Q 3344 2578 2956 2516 
Q 3422 2416 3680 2098 
Q 3938 1781 3938 1306 
Q 3938 681 3513 340 
Q 3088 0 2303 0 
L 628 0 
L 628 4666 
z
" transform="scale(0.015625)"/>
     </defs>
     <use xlink:href="#DejaVuSans-4e"/>
     <use xlink:href="#DejaVuSans-20" transform="translate(74.804688 0)"/>
     <use xlink:href="#DejaVuSans-50" transform="translate(106.591797 0)"/>
     <use xlink:href="#DejaVuSans-68" transform="translate(166.894531 0)"/>
     <use xlink:href="#DejaVuSans-61" transform="translate(230.273438 0)"/>
     <use xlink:href="#DejaVuSans-73" transform="translate(291.552734 0)"/>
     <use xlink:href="#DejaVuSans-65" transform="translate(343.652344 0)"/>
     <use xlink:href="#DejaVuSans-20" transform="translate(405.175781 0)"/>
     <use xlink:href="#DejaVuSans-42" transform="translate(436.962891 0)"/>
     <use xlink:href="#DejaVuSans-69" transform="translate(505.566406 0)"/>
     <use xlink:href="#DejaVuSans-6e" transform="translate(533.349609 0)"/>
     <use xlink:href="#DejaVuSans-73" transform="translate(596.728516 0)"/>
    </g>
   </g>
   <g id="legend_3">
    <g id="patch_19">
     <path d="M 497.470242 1168.29192 
L 620.736492 1168.29192 
Q 623.976492 1168.29192 623.976492 1165.05192 
L 623.976492 1046.037045 
Q 623.976492 1042.797045 620.736492 1042.797045 
L 497.470242 1042.797045 
Q 494.230242 1042.797045 494.230242 1046.037045 
L 494.230242 1165.05192 
Q 494.230242 1168.29192 497.470242 1168.29192 
z
" style="fill: #ffffff; opacity: 0.8; stroke: #cccccc; stroke-linejoin: miter"/>
    </g>
    <g id="text_57">
     <!-- N Phase Bins -->
     <g transform="translate(500.710242 1062.954232) scale(0.18 -0.18)">
      <use xlink:href="#DejaVuSans-4e"/>
      <use xlink:href="#DejaVuSans-20" transform="translate(74.804688 0)"/>
      <use xlink:href="#DejaVuSans-50" transform="translate(106.591797 0)"/>
      <use xlink:href="#DejaVuSans-68" transform="translate(166.894531 0)"/>
      <use xlink:href="#DejaVuSans-61" transform="translate(230.273438 0)"/>
      <use xlink:href="#DejaVuSans-73" transform="translate(291.552734 0)"/>
      <use xlink:href="#DejaVuSans-65" transform="translate(343.652344 0)"/>
      <use xlink:href="#DejaVuSans-20" transform="translate(405.175781 0)"/>
      <use xlink:href="#DejaVuSans-42" transform="translate(436.962891 0)"/>
      <use xlink:href="#DejaVuSans-69" transform="translate(505.566406 0)"/>
      <use xlink:href="#DejaVuSans-6e" transform="translate(533.349609 0)"/>
      <use xlink:href="#DejaVuSans-73" transform="translate(596.728516 0)"/>
     </g>
    </g>
    <g id="line2d_70">
     <path d="M 526.116117 1081.437139 
L 542.316117 1081.437139 
L 558.516117 1081.437139 
" style="fill: none; stroke: #001261; stroke-width: 3; stroke-linecap: square"/>
    </g>
    <g id="text_58">
     <!-- 30 -->
     <g transform="translate(571.476117 1087.107139) scale(0.162 -0.162)">
      <use xlink:href="#DejaVuSans-33"/>
      <use xlink:href="#DejaVuSans-30" transform="translate(63.623047 0)"/>
     </g>
    </g>
    <g id="line2d_71">
     <path d="M 526.116117 1105.215701 
L 542.316117 1105.215701 
L 558.516117 1105.215701 
" style="fill: none; stroke-dasharray: 12,4.5; stroke-dashoffset: 0; stroke: #71a8c4; stroke-width: 3"/>
    </g>
    <g id="text_59">
     <!-- 45 -->
     <g transform="translate(571.476117 1110.885701) scale(0.162 -0.162)">
      <use xlink:href="#DejaVuSans-34"/>
      <use xlink:href="#DejaVuSans-35" transform="translate(63.623047 0)"/>
     </g>
    </g>
    <g id="line2d_72">
     <path d="M 526.116117 1128.994264 
L 542.316117 1128.994264 
L 558.516117 1128.994264 
" style="fill: none; stroke-dasharray: 3,3; stroke-dashoffset: 0; stroke: #d39774; stroke-width: 3"/>
    </g>
    <g id="text_60">
     <!-- 60 -->
     <g transform="translate(571.476117 1134.664264) scale(0.162 -0.162)">
      <use xlink:href="#DejaVuSans-36"/>
      <use xlink:href="#DejaVuSans-30" transform="translate(63.623047 0)"/>
     </g>
    </g>
    <g id="line2d_73">
     <path d="M 526.116117 1152.772826 
L 542.316117 1152.772826 
L 558.516117 1152.772826 
" style="fill: none; stroke-dasharray: 9,3.75,4.5,3.75; stroke-dashoffset: 0; stroke: #590008; stroke-width: 3"/>
    </g>
    <g id="text_61">
     <!-- 75 -->
     <g transform="translate(571.476117 1158.442826) scale(0.162 -0.162)">
      <defs>
       <path id="DejaVuSans-37" d="M 525 4666 
L 3525 4666 
L 3525 4397 
L 1831 0 
L 1172 0 
L 2766 4134 
L 525 4134 
L 525 4666 
z
" transform="scale(0.015625)"/>
      </defs>
      <use xlink:href="#DejaVuSans-37"/>
      <use xlink:href="#DejaVuSans-35" transform="translate(63.623047 0)"/>
     </g>
    </g>
   </g>
  </g>
  <g id="axes_4">
   <g id="patch_20">
    <path d="M 709.81984 1176.39192 
L 1265.042892 1176.39192 
L 1265.042892 700.133293 
L 709.81984 700.133293 
z
" style="fill: #ffffff"/>
   </g>
   <g id="matplotlib.axis_7">
    <g id="xtick_22">
     <g id="line2d_74">
      <g>
       <use xlink:href="#m4a59cff95b" x="717.65214" y="1176.39192" style="stroke: #000000; stroke-width: 0.8"/>
      </g>
     </g>
     <g id="text_62">
      <!-- 0.00 -->
      <g transform="translate(699.616984 1195.701389) scale(0.162 -0.162)">
       <use xlink:href="#DejaVuSans-30"/>
       <use xlink:href="#DejaVuSans-2e" transform="translate(63.623047 0)"/>
       <use xlink:href="#DejaVuSans-30" transform="translate(95.410156 0)"/>
       <use xlink:href="#DejaVuSans-30" transform="translate(159.033203 0)"/>
      </g>
     </g>
    </g>
    <g id="xtick_23">
     <g id="line2d_75">
      <g>
       <use xlink:href="#m4a59cff95b" x="804.677697" y="1176.39192" style="stroke: #000000; stroke-width: 0.8"/>
      </g>
     </g>
     <g id="text_63">
      <!-- 0.05 -->
      <g transform="translate(786.642541 1195.701389) scale(0.162 -0.162)">
       <use xlink:href="#DejaVuSans-30"/>
       <use xlink:href="#DejaVuSans-2e" transform="translate(63.623047 0)"/>
       <use xlink:href="#DejaVuSans-30" transform="translate(95.410156 0)"/>
       <use xlink:href="#DejaVuSans-35" transform="translate(159.033203 0)"/>
      </g>
     </g>
    </g>
    <g id="xtick_24">
     <g id="line2d_76">
      <g>
       <use xlink:href="#m4a59cff95b" x="891.703254" y="1176.39192" style="stroke: #000000; stroke-width: 0.8"/>
      </g>
     </g>
     <g id="text_64">
      <!-- 0.10 -->
      <g transform="translate(873.668097 1195.701389) scale(0.162 -0.162)">
       <use xlink:href="#DejaVuSans-30"/>
       <use xlink:href="#DejaVuSans-2e" transform="translate(63.623047 0)"/>
       <use xlink:href="#DejaVuSans-31" transform="translate(95.410156 0)"/>
       <use xlink:href="#DejaVuSans-30" transform="translate(159.033203 0)"/>
      </g>
     </g>
    </g>
    <g id="xtick_25">
     <g id="line2d_77">
      <g>
       <use xlink:href="#m4a59cff95b" x="978.72881" y="1176.39192" style="stroke: #000000; stroke-width: 0.8"/>
      </g>
     </g>
     <g id="text_65">
      <!-- 0.15 -->
      <g transform="translate(960.693654 1195.701389) scale(0.162 -0.162)">
       <use xlink:href="#DejaVuSans-30"/>
       <use xlink:href="#DejaVuSans-2e" transform="translate(63.623047 0)"/>
       <use xlink:href="#DejaVuSans-31" transform="translate(95.410156 0)"/>
       <use xlink:href="#DejaVuSans-35" transform="translate(159.033203 0)"/>
      </g>
     </g>
    </g>
    <g id="xtick_26">
     <g id="line2d_78">
      <g>
       <use xlink:href="#m4a59cff95b" x="1065.754367" y="1176.39192" style="stroke: #000000; stroke-width: 0.8"/>
      </g>
     </g>
     <g id="text_66">
      <!-- 0.20 -->
      <g transform="translate(1047.719211 1195.701389) scale(0.162 -0.162)">
       <use xlink:href="#DejaVuSans-30"/>
       <use xlink:href="#DejaVuSans-2e" transform="translate(63.623047 0)"/>
       <use xlink:href="#DejaVuSans-32" transform="translate(95.410156 0)"/>
       <use xlink:href="#DejaVuSans-30" transform="translate(159.033203 0)"/>
      </g>
     </g>
    </g>
    <g id="xtick_27">
     <g id="line2d_79">
      <g>
       <use xlink:href="#m4a59cff95b" x="1152.779924" y="1176.39192" style="stroke: #000000; stroke-width: 0.8"/>
      </g>
     </g>
     <g id="text_67">
      <!-- 0.25 -->
      <g transform="translate(1134.744767 1195.701389) scale(0.162 -0.162)">
       <use xlink:href="#DejaVuSans-30"/>
       <use xlink:href="#DejaVuSans-2e" transform="translate(63.623047 0)"/>
       <use xlink:href="#DejaVuSans-32" transform="translate(95.410156 0)"/>
       <use xlink:href="#DejaVuSans-35" transform="translate(159.033203 0)"/>
      </g>
     </g>
    </g>
    <g id="xtick_28">
     <g id="line2d_80">
      <g>
       <use xlink:href="#m4a59cff95b" x="1239.80548" y="1176.39192" style="stroke: #000000; stroke-width: 0.8"/>
      </g>
     </g>
     <g id="text_68">
      <!-- 0.30 -->
      <g transform="translate(1221.770324 1195.701389) scale(0.162 -0.162)">
       <use xlink:href="#DejaVuSans-30"/>
       <use xlink:href="#DejaVuSans-2e" transform="translate(63.623047 0)"/>
       <use xlink:href="#DejaVuSans-33" transform="translate(95.410156 0)"/>
       <use xlink:href="#DejaVuSans-30" transform="translate(159.033203 0)"/>
      </g>
     </g>
    </g>
    <g id="text_69">
     <!-- Effect Magnitude -->
     <g transform="translate(910.85121 1216.74767) scale(0.18 -0.18)">
      <use xlink:href="#DejaVuSans-45"/>
      <use xlink:href="#DejaVuSans-66" transform="translate(63.183594 0)"/>
      <use xlink:href="#DejaVuSans-66" transform="translate(98.388672 0)"/>
      <use xlink:href="#DejaVuSans-65" transform="translate(133.59375 0)"/>
      <use xlink:href="#DejaVuSans-63" transform="translate(195.117188 0)"/>
      <use xlink:href="#DejaVuSans-74" transform="translate(250.097656 0)"/>
      <use xlink:href="#DejaVuSans-20" transform="translate(289.306641 0)"/>
      <use xlink:href="#DejaVuSans-4d" transform="translate(321.09375 0)"/>
      <use xlink:href="#DejaVuSans-61" transform="translate(407.373047 0)"/>
      <use xlink:href="#DejaVuSans-67" transform="translate(468.652344 0)"/>
      <use xlink:href="#DejaVuSans-6e" transform="translate(532.128906 0)"/>
      <use xlink:href="#DejaVuSans-69" transform="translate(595.507812 0)"/>
      <use xlink:href="#DejaVuSans-74" transform="translate(623.291016 0)"/>
      <use xlink:href="#DejaVuSans-75" transform="translate(662.5 0)"/>
      <use xlink:href="#DejaVuSans-64" transform="translate(725.878906 0)"/>
      <use xlink:href="#DejaVuSans-65" transform="translate(789.355469 0)"/>
     </g>
    </g>
   </g>
   <g id="matplotlib.axis_8">
    <g id="ytick_17">
     <g id="line2d_81">
      <g>
       <use xlink:href="#m1d430089a4" x="709.81984" y="1090.52008" style="stroke: #000000; stroke-width: 0.8"/>
      </g>
     </g>
     <g id="text_70">
      <!-- 0.2 -->
      <g transform="translate(677.056778 1096.674815) scale(0.162 -0.162)">
       <use xlink:href="#DejaVuSans-30"/>
       <use xlink:href="#DejaVuSans-2e" transform="translate(63.623047 0)"/>
       <use xlink:href="#DejaVuSans-32" transform="translate(95.410156 0)"/>
      </g>
     </g>
    </g>
    <g id="ytick_18">
     <g id="line2d_82">
      <g>
       <use xlink:href="#m1d430089a4" x="709.81984" y="994.797081" style="stroke: #000000; stroke-width: 0.8"/>
      </g>
     </g>
     <g id="text_71">
      <!-- 0.4 -->
      <g transform="translate(677.056778 1000.951815) scale(0.162 -0.162)">
       <use xlink:href="#DejaVuSans-30"/>
       <use xlink:href="#DejaVuSans-2e" transform="translate(63.623047 0)"/>
       <use xlink:href="#DejaVuSans-34" transform="translate(95.410156 0)"/>
      </g>
     </g>
    </g>
    <g id="ytick_19">
     <g id="line2d_83">
      <g>
       <use xlink:href="#m1d430089a4" x="709.81984" y="899.074082" style="stroke: #000000; stroke-width: 0.8"/>
      </g>
     </g>
     <g id="text_72">
      <!-- 0.6 -->
      <g transform="translate(677.056778 905.228816) scale(0.162 -0.162)">
       <use xlink:href="#DejaVuSans-30"/>
       <use xlink:href="#DejaVuSans-2e" transform="translate(63.623047 0)"/>
       <use xlink:href="#DejaVuSans-36" transform="translate(95.410156 0)"/>
      </g>
     </g>
    </g>
    <g id="ytick_20">
     <g id="line2d_84">
      <g>
       <use xlink:href="#m1d430089a4" x="709.81984" y="803.351082" style="stroke: #000000; stroke-width: 0.8"/>
      </g>
     </g>
     <g id="text_73">
      <!-- 0.8 -->
      <g transform="translate(677.056778 809.505817) scale(0.162 -0.162)">
       <use xlink:href="#DejaVuSans-30"/>
       <use xlink:href="#DejaVuSans-2e" transform="translate(63.623047 0)"/>
       <use xlink:href="#DejaVuSans-38" transform="translate(95.410156 0)"/>
      </g>
     </g>
    </g>
    <g id="ytick_21">
     <g id="line2d_85">
      <g>
       <use xlink:href="#m1d430089a4" x="709.81984" y="707.628083" style="stroke: #000000; stroke-width: 0.8"/>
      </g>
     </g>
     <g id="text_74">
      <!-- 1.0 -->
      <g transform="translate(677.056778 713.782817) scale(0.162 -0.162)">
       <use xlink:href="#DejaVuSans-31"/>
       <use xlink:href="#DejaVuSans-2e" transform="translate(63.623047 0)"/>
       <use xlink:href="#DejaVuSans-30" transform="translate(95.410156 0)"/>
      </g>
     </g>
    </g>
    <g id="text_75">
     <!-- 1-P(Type II Error) -->
     <g transform="translate(669.31334 1013.318388) rotate(-90) scale(0.18 -0.18)">
      <use xlink:href="#DejaVuSans-31"/>
      <use xlink:href="#DejaVuSans-2d" transform="translate(63.623047 0)"/>
      <use xlink:href="#DejaVuSans-50" transform="translate(99.707031 0)"/>
      <use xlink:href="#DejaVuSans-28" transform="translate(160.009766 0)"/>
      <use xlink:href="#DejaVuSans-54" transform="translate(199.023438 0)"/>
      <use xlink:href="#DejaVuSans-79" transform="translate(244.482422 0)"/>
      <use xlink:href="#DejaVuSans-70" transform="translate(303.662109 0)"/>
      <use xlink:href="#DejaVuSans-65" transform="translate(367.138672 0)"/>
      <use xlink:href="#DejaVuSans-20" transform="translate(428.662109 0)"/>
      <use xlink:href="#DejaVuSans-49" transform="translate(460.449219 0)"/>
      <use xlink:href="#DejaVuSans-49" transform="translate(489.941406 0)"/>
      <use xlink:href="#DejaVuSans-20" transform="translate(519.433594 0)"/>
      <use xlink:href="#DejaVuSans-45" transform="translate(551.220703 0)"/>
      <use xlink:href="#DejaVuSans-72" transform="translate(614.404297 0)"/>
      <use xlink:href="#DejaVuSans-72" transform="translate(653.767578 0)"/>
      <use xlink:href="#DejaVuSans-6f" transform="translate(692.630859 0)"/>
      <use xlink:href="#DejaVuSans-72" transform="translate(753.8125 0)"/>
      <use xlink:href="#DejaVuSans-29" transform="translate(794.925781 0)"/>
     </g>
    </g>
   </g>
   <g id="line2d_86">
    <path d="M 735.057251 1154.743801 
L 752.462363 1107.538418 
L 769.867474 1041.332784 
L 787.272585 978.760823 
L 804.677697 928.752862 
L 822.082808 889.368296 
L 839.48792 857.160221 
L 856.893031 830.786239 
L 874.298142 810.166364 
L 891.703254 793.506335 
L 909.108365 782.541934 
L 926.513476 772.603834 
L 943.918588 763.838757 
L 961.323699 756.425438 
L 978.72881 750.795976 
L 996.133922 747.134048 
L 1013.539033 742.438736 
L 1030.944144 739.645681 
L 1048.349256 736.252204 
L 1065.754367 734.664664 
L 1083.159478 731.567419 
L 1100.56459 730.802571 
L 1117.969701 728.612136 
L 1135.374812 727.764989 
L 1152.779924 726.249541 
L 1170.185035 725.57085 
L 1187.590146 724.637671 
L 1204.995258 723.885697 
L 1222.400369 723.404838 
L 1239.80548 722.465308 
" clip-path="url(#pb3e707e290)" style="fill: none; stroke: #001261; stroke-width: 3; stroke-linecap: square"/>
   </g>
   <g id="line2d_87">
    <path d="M 735.057251 1145.697552 
L 752.462363 1079.306815 
L 769.867474 1000.586043 
L 787.272585 937.967248 
L 804.677697 887.883607 
L 822.082808 849.856506 
L 839.48792 821.378914 
L 856.893031 802.712929 
L 874.298142 786.052569 
L 891.703254 773.608579 
L 909.108365 763.762785 
L 926.513476 756.40123 
L 943.918588 749.358753 
L 961.323699 745.108196 
L 978.72881 740.584144 
L 996.133922 737.963157 
L 1013.539033 735.307984 
L 1030.944144 731.969074 
L 1048.349256 731.000449 
L 1065.754367 728.960637 
L 1083.159478 727.342463 
L 1100.56459 726.294068 
L 1117.969701 725.621728 
L 1135.374812 724.983575 
L 1152.779924 723.570521 
L 1170.185035 724.778454 
L 1187.590146 723.137488 
L 1204.995258 722.772829 
L 1222.400369 721.792808 
L 1239.80548 721.781412 
" clip-path="url(#pb3e707e290)" style="fill: none; stroke-dasharray: 12,4.5; stroke-dashoffset: 0; stroke: #71a8c4; stroke-width: 3"/>
   </g>
   <g id="line2d_88">
    <path d="M 735.057251 1144.238916 
L 752.462363 1065.062321 
L 769.867474 982.102388 
L 787.272585 917.671693 
L 804.677697 869.240414 
L 822.082808 834.415475 
L 839.48792 808.490496 
L 856.893031 789.80172 
L 874.298142 776.21817 
L 891.703254 765.643058 
L 909.108365 757.267296 
L 926.513476 751.239026 
L 943.918588 745.8717 
L 961.323699 742.019989 
L 978.72881 738.795036 
L 996.133922 736.105675 
L 1013.539033 733.667018 
L 1030.944144 732.960491 
L 1048.349256 731.889305 
L 1065.754367 730.214153 
L 1083.159478 728.630165 
L 1100.56459 727.615957 
L 1117.969701 727.19432 
L 1135.374812 725.815453 
L 1152.779924 725.735684 
L 1170.185035 724.459377 
L 1187.590146 723.844015 
L 1204.995258 723.923784 
L 1222.400369 724.03774 
L 1239.80548 723.673081 
" clip-path="url(#pb3e707e290)" style="fill: none; stroke-dasharray: 3,3; stroke-dashoffset: 0; stroke: #590008; stroke-width: 3"/>
   </g>
   <g id="line2d_89"/>
   <g id="line2d_90"/>
   <g id="line2d_91"/>
   <g id="patch_21">
    <path d="M 709.81984 1176.39192 
L 709.81984 700.133293 
" style="fill: none; stroke: #000000; stroke-width: 0.8; stroke-linejoin: miter; stroke-linecap: square"/>
   </g>
   <g id="patch_22">
    <path d="M 1265.042892 1176.39192 
L 1265.042892 700.133293 
" style="fill: none; stroke: #000000; stroke-width: 0.8; stroke-linejoin: miter; stroke-linecap: square"/>
   </g>
   <g id="patch_23">
    <path d="M 709.81984 1176.39192 
L 1265.042892 1176.39192 
" style="fill: none; stroke: #000000; stroke-width: 0.8; stroke-linejoin: miter; stroke-linecap: square"/>
   </g>
   <g id="patch_24">
    <path d="M 709.81984 700.133293 
L 1265.042892 700.133293 
" style="fill: none; stroke: #000000; stroke-width: 0.8; stroke-linejoin: miter; stroke-linecap: square"/>
   </g>
   <g id="text_76">
    <!-- Binning Width -->
    <g transform="translate(917.428241 694.133293) scale(0.2 -0.2)">
     <defs>
      <path id="DejaVuSans-57" d="M 213 4666 
L 850 4666 
L 1831 722 
L 2809 4666 
L 3519 4666 
L 4500 722 
L 5478 4666 
L 6119 4666 
L 4947 0 
L 4153 0 
L 3169 4050 
L 2175 0 
L 1381 0 
L 213 4666 
z
" transform="scale(0.015625)"/>
     </defs>
     <use xlink:href="#DejaVuSans-42"/>
     <use xlink:href="#DejaVuSans-69" transform="translate(68.603516 0)"/>
     <use xlink:href="#DejaVuSans-6e" transform="translate(96.386719 0)"/>
     <use xlink:href="#DejaVuSans-6e" transform="translate(159.765625 0)"/>
     <use xlink:href="#DejaVuSans-69" transform="translate(223.144531 0)"/>
     <use xlink:href="#DejaVuSans-6e" transform="translate(250.927734 0)"/>
     <use xlink:href="#DejaVuSans-67" transform="translate(314.306641 0)"/>
     <use xlink:href="#DejaVuSans-20" transform="translate(377.783203 0)"/>
     <use xlink:href="#DejaVuSans-57" transform="translate(409.570312 0)"/>
     <use xlink:href="#DejaVuSans-69" transform="translate(506.197266 0)"/>
     <use xlink:href="#DejaVuSans-64" transform="translate(533.980469 0)"/>
     <use xlink:href="#DejaVuSans-74" transform="translate(597.457031 0)"/>
     <use xlink:href="#DejaVuSans-68" transform="translate(636.666016 0)"/>
    </g>
   </g>
   <g id="legend_4">
    <g id="patch_25">
     <path d="M 1064.570704 1168.29192 
L 1253.702892 1168.29192 
Q 1256.942892 1168.29192 1256.942892 1165.05192 
L 1256.942892 1069.815608 
Q 1256.942892 1066.575608 1253.702892 1066.575608 
L 1064.570704 1066.575608 
Q 1061.330704 1066.575608 1061.330704 1069.815608 
L 1061.330704 1165.05192 
Q 1061.330704 1168.29192 1064.570704 1168.29192 
z
" style="fill: #ffffff; opacity: 0.8; stroke: #cccccc; stroke-linejoin: miter"/>
    </g>
    <g id="text_77">
     <!-- Binning Width (*2pi) -->
     <g transform="translate(1067.810704 1086.732795) scale(0.18 -0.18)">
      <defs>
       <path id="DejaVuSans-2a" d="M 3009 3897 
L 1888 3291 
L 3009 2681 
L 2828 2375 
L 1778 3009 
L 1778 1831 
L 1422 1831 
L 1422 3009 
L 372 2375 
L 191 2681 
L 1313 3291 
L 191 3897 
L 372 4206 
L 1422 3572 
L 1422 4750 
L 1778 4750 
L 1778 3572 
L 2828 4206 
L 3009 3897 
z
" transform="scale(0.015625)"/>
      </defs>
      <use xlink:href="#DejaVuSans-42"/>
      <use xlink:href="#DejaVuSans-69" transform="translate(68.603516 0)"/>
      <use xlink:href="#DejaVuSans-6e" transform="translate(96.386719 0)"/>
      <use xlink:href="#DejaVuSans-6e" transform="translate(159.765625 0)"/>
      <use xlink:href="#DejaVuSans-69" transform="translate(223.144531 0)"/>
      <use xlink:href="#DejaVuSans-6e" transform="translate(250.927734 0)"/>
      <use xlink:href="#DejaVuSans-67" transform="translate(314.306641 0)"/>
      <use xlink:href="#DejaVuSans-20" transform="translate(377.783203 0)"/>
      <use xlink:href="#DejaVuSans-57" transform="translate(409.570312 0)"/>
      <use xlink:href="#DejaVuSans-69" transform="translate(506.197266 0)"/>
      <use xlink:href="#DejaVuSans-64" transform="translate(533.980469 0)"/>
      <use xlink:href="#DejaVuSans-74" transform="translate(597.457031 0)"/>
      <use xlink:href="#DejaVuSans-68" transform="translate(636.666016 0)"/>
      <use xlink:href="#DejaVuSans-20" transform="translate(700.044922 0)"/>
      <use xlink:href="#DejaVuSans-28" transform="translate(731.832031 0)"/>
      <use xlink:href="#DejaVuSans-2a" transform="translate(770.845703 0)"/>
      <use xlink:href="#DejaVuSans-32" transform="translate(820.845703 0)"/>
      <use xlink:href="#DejaVuSans-70" transform="translate(884.46875 0)"/>
      <use xlink:href="#DejaVuSans-69" transform="translate(947.945312 0)"/>
      <use xlink:href="#DejaVuSans-29" transform="translate(975.728516 0)"/>
     </g>
    </g>
    <g id="line2d_92">
     <path d="M 1118.421642 1105.215701 
L 1134.621642 1105.215701 
L 1150.821642 1105.215701 
" style="fill: none; stroke: #001261; stroke-width: 3; stroke-linecap: square"/>
    </g>
    <g id="text_78">
     <!-- 0.05 -->
     <g transform="translate(1163.781642 1110.885701) scale(0.162 -0.162)">
      <use xlink:href="#DejaVuSans-30"/>
      <use xlink:href="#DejaVuSans-2e" transform="translate(63.623047 0)"/>
      <use xlink:href="#DejaVuSans-30" transform="translate(95.410156 0)"/>
      <use xlink:href="#DejaVuSans-35" transform="translate(159.033203 0)"/>
     </g>
    </g>
    <g id="line2d_93">
     <path d="M 1118.421642 1128.994264 
L 1134.621642 1128.994264 
L 1150.821642 1128.994264 
" style="fill: none; stroke-dasharray: 12,4.5; stroke-dashoffset: 0; stroke: #71a8c4; stroke-width: 3"/>
    </g>
    <g id="text_79">
     <!-- 0.1 -->
     <g transform="translate(1163.781642 1134.664264) scale(0.162 -0.162)">
      <use xlink:href="#DejaVuSans-30"/>
      <use xlink:href="#DejaVuSans-2e" transform="translate(63.623047 0)"/>
      <use xlink:href="#DejaVuSans-31" transform="translate(95.410156 0)"/>
     </g>
    </g>
    <g id="line2d_94">
     <path d="M 1118.421642 1152.772826 
L 1134.621642 1152.772826 
L 1150.821642 1152.772826 
" style="fill: none; stroke-dasharray: 3,3; stroke-dashoffset: 0; stroke: #590008; stroke-width: 3"/>
    </g>
    <g id="text_80">
     <!-- 0.2 -->
     <g transform="translate(1163.781642 1158.442826) scale(0.162 -0.162)">
      <use xlink:href="#DejaVuSans-30"/>
      <use xlink:href="#DejaVuSans-2e" transform="translate(63.623047 0)"/>
      <use xlink:href="#DejaVuSans-32" transform="translate(95.410156 0)"/>
     </g>
    </g>
   </g>
  </g>
  <g id="text_81">
   <!-- Probability of reporting an existing effect -->
   <g transform="translate(413.982031 41.470163) scale(0.22 -0.22)">
    <defs>
     <path id="DejaVuSans-78" d="M 3513 3500 
L 2247 1797 
L 3578 0 
L 2900 0 
L 1881 1375 
L 863 0 
L 184 0 
L 1544 1831 
L 300 3500 
L 978 3500 
L 1906 2253 
L 2834 3500 
L 3513 3500 
z
" transform="scale(0.015625)"/>
    </defs>
    <use xlink:href="#DejaVuSans-50"/>
    <use xlink:href="#DejaVuSans-72" transform="translate(58.552734 0)"/>
    <use xlink:href="#DejaVuSans-6f" transform="translate(97.416016 0)"/>
    <use xlink:href="#DejaVuSans-62" transform="translate(158.597656 0)"/>
    <use xlink:href="#DejaVuSans-61" transform="translate(222.074219 0)"/>
    <use xlink:href="#DejaVuSans-62" transform="translate(283.353516 0)"/>
    <use xlink:href="#DejaVuSans-69" transform="translate(346.830078 0)"/>
    <use xlink:href="#DejaVuSans-6c" transform="translate(374.613281 0)"/>
    <use xlink:href="#DejaVuSans-69" transform="translate(402.396484 0)"/>
    <use xlink:href="#DejaVuSans-74" transform="translate(430.179688 0)"/>
    <use xlink:href="#DejaVuSans-79" transform="translate(469.388672 0)"/>
    <use xlink:href="#DejaVuSans-20" transform="translate(528.568359 0)"/>
    <use xlink:href="#DejaVuSans-6f" transform="translate(560.355469 0)"/>
    <use xlink:href="#DejaVuSans-66" transform="translate(621.537109 0)"/>
    <use xlink:href="#DejaVuSans-20" transform="translate(656.742188 0)"/>
    <use xlink:href="#DejaVuSans-72" transform="translate(688.529297 0)"/>
    <use xlink:href="#DejaVuSans-65" transform="translate(727.392578 0)"/>
    <use xlink:href="#DejaVuSans-70" transform="translate(788.916016 0)"/>
    <use xlink:href="#DejaVuSans-6f" transform="translate(852.392578 0)"/>
    <use xlink:href="#DejaVuSans-72" transform="translate(913.574219 0)"/>
    <use xlink:href="#DejaVuSans-74" transform="translate(954.6875 0)"/>
    <use xlink:href="#DejaVuSans-69" transform="translate(993.896484 0)"/>
    <use xlink:href="#DejaVuSans-6e" transform="translate(1021.679688 0)"/>
    <use xlink:href="#DejaVuSans-67" transform="translate(1085.058594 0)"/>
    <use xlink:href="#DejaVuSans-20" transform="translate(1148.535156 0)"/>
    <use xlink:href="#DejaVuSans-61" transform="translate(1180.322266 0)"/>
    <use xlink:href="#DejaVuSans-6e" transform="translate(1241.601562 0)"/>
    <use xlink:href="#DejaVuSans-20" transform="translate(1304.980469 0)"/>
    <use xlink:href="#DejaVuSans-65" transform="translate(1336.767578 0)"/>
    <use xlink:href="#DejaVuSans-78" transform="translate(1396.541016 0)"/>
    <use xlink:href="#DejaVuSans-69" transform="translate(1455.720703 0)"/>
    <use xlink:href="#DejaVuSans-73" transform="translate(1483.503906 0)"/>
    <use xlink:href="#DejaVuSans-74" transform="translate(1535.603516 0)"/>
    <use xlink:href="#DejaVuSans-69" transform="translate(1574.8125 0)"/>
    <use xlink:href="#DejaVuSans-6e" transform="translate(1602.595703 0)"/>
    <use xlink:href="#DejaVuSans-67" transform="translate(1665.974609 0)"/>
    <use xlink:href="#DejaVuSans-20" transform="translate(1729.451172 0)"/>
    <use xlink:href="#DejaVuSans-65" transform="translate(1761.238281 0)"/>
    <use xlink:href="#DejaVuSans-66" transform="translate(1822.761719 0)"/>
    <use xlink:href="#DejaVuSans-66" transform="translate(1857.966797 0)"/>
    <use xlink:href="#DejaVuSans-65" transform="translate(1893.171875 0)"/>
    <use xlink:href="#DejaVuSans-63" transform="translate(1954.695312 0)"/>
    <use xlink:href="#DejaVuSans-74" transform="translate(2009.675781 0)"/>
   </g>
  </g>
 </g>
 <defs>
  <clipPath id="pbe2c2df9f0">
   <rect x="76.85344" y="123.768" width="555.223052" height="476.258627"/>
  </clipPath>
  <clipPath id="p94119894d2">
   <rect x="709.81984" y="123.768" width="555.223052" height="476.258627"/>
  </clipPath>
  <clipPath id="pead080cb9f">
   <rect x="76.85344" y="700.133293" width="555.223052" height="476.258627"/>
  </clipPath>
  <clipPath id="pb3e707e290">
   <rect x="709.81984" y="700.133293" width="555.223052" height="476.258627"/>
  </clipPath>
 </defs>
</svg>
